<mxfile host="Electron" modified="2023-12-21T07:20:47.495Z" agent="Mozilla/5.0 (Windows NT 10.0; Win64; x64) AppleWebKit/537.36 (KHTML, like Gecko) draw.io/22.1.11 Chrome/114.0.5735.289 Electron/25.9.8 Safari/537.36" etag="FVPNwCucQe3Cn2KT5y0K" version="22.1.11" type="device" pages="8">
  <diagram name="InvManag()" id="1MLS3WhxtVQSe1uBR6d-">
    <mxGraphModel dx="1036" dy="606" grid="1" gridSize="10" guides="1" tooltips="1" connect="1" arrows="1" fold="1" page="1" pageScale="1" pageWidth="850" pageHeight="1100" math="0" shadow="0">
      <root>
        <mxCell id="0" />
        <mxCell id="1" parent="0" />
        <mxCell id="X6Lzgd3WgfE9ZMlhYXXn-4" value="" style="edgeStyle=orthogonalEdgeStyle;rounded=0;orthogonalLoop=1;jettySize=auto;html=1;fontFamily=Times New Roman;" parent="1" source="M0Trja-rhTZAoE6dcsw2-1" target="M0Trja-rhTZAoE6dcsw2-3" edge="1">
          <mxGeometry relative="1" as="geometry" />
        </mxCell>
        <mxCell id="M0Trja-rhTZAoE6dcsw2-1" value="START" style="strokeWidth=2;html=1;shape=mxgraph.flowchart.terminator;whiteSpace=wrap;fontFamily=Times New Roman;" parent="1" vertex="1">
          <mxGeometry x="418" y="30" width="100" height="60" as="geometry" />
        </mxCell>
        <mxCell id="X6Lzgd3WgfE9ZMlhYXXn-5" value="" style="edgeStyle=orthogonalEdgeStyle;rounded=0;orthogonalLoop=1;jettySize=auto;html=1;fontFamily=Times New Roman;" parent="1" source="M0Trja-rhTZAoE6dcsw2-3" target="M0Trja-rhTZAoE6dcsw2-4" edge="1">
          <mxGeometry relative="1" as="geometry" />
        </mxCell>
        <mxCell id="M0Trja-rhTZAoE6dcsw2-3" value="import Maintenance as main&lt;br&gt;import os&lt;br&gt;loop=True&lt;br&gt;Stk=main.readFile(&quot;assfile&quot;,&quot;r&quot;)" style="rounded=1;whiteSpace=wrap;html=1;absoluteArcSize=1;arcSize=14;strokeWidth=2;fontFamily=Times New Roman;" parent="1" vertex="1">
          <mxGeometry x="358" y="120" width="220" height="70" as="geometry" />
        </mxCell>
        <mxCell id="X6Lzgd3WgfE9ZMlhYXXn-6" value="" style="edgeStyle=orthogonalEdgeStyle;rounded=0;orthogonalLoop=1;jettySize=auto;html=1;fontFamily=Times New Roman;" parent="1" source="M0Trja-rhTZAoE6dcsw2-4" target="M0Trja-rhTZAoE6dcsw2-5" edge="1">
          <mxGeometry relative="1" as="geometry" />
        </mxCell>
        <mxCell id="CMMBqR-mVuPqP5uvG2Wn-69" style="edgeStyle=orthogonalEdgeStyle;rounded=0;orthogonalLoop=1;jettySize=auto;html=1;exitX=1;exitY=0.5;exitDx=0;exitDy=0;exitPerimeter=0;fontFamily=Times New Roman;" parent="1" source="M0Trja-rhTZAoE6dcsw2-4" target="CMMBqR-mVuPqP5uvG2Wn-68" edge="1">
          <mxGeometry relative="1" as="geometry" />
        </mxCell>
        <mxCell id="M0Trja-rhTZAoE6dcsw2-4" value="loop" style="strokeWidth=2;html=1;shape=mxgraph.flowchart.decision;whiteSpace=wrap;fontFamily=Times New Roman;" parent="1" vertex="1">
          <mxGeometry x="418" y="210" width="100" height="100" as="geometry" />
        </mxCell>
        <mxCell id="X6Lzgd3WgfE9ZMlhYXXn-7" value="" style="edgeStyle=orthogonalEdgeStyle;rounded=0;orthogonalLoop=1;jettySize=auto;html=1;fontFamily=Times New Roman;" parent="1" source="M0Trja-rhTZAoE6dcsw2-5" target="M0Trja-rhTZAoE6dcsw2-6" edge="1">
          <mxGeometry relative="1" as="geometry" />
        </mxCell>
        <mxCell id="M0Trja-rhTZAoE6dcsw2-5" value="os.system(&quot;cls&quot;)" style="rounded=1;whiteSpace=wrap;html=1;absoluteArcSize=1;arcSize=14;strokeWidth=2;fontFamily=Times New Roman;" parent="1" vertex="1">
          <mxGeometry x="418" y="330" width="100" height="60" as="geometry" />
        </mxCell>
        <mxCell id="M0Trja-rhTZAoE6dcsw2-6" value="PRINT&lt;br&gt;&quot;-&quot;*50&lt;br&gt;&quot; &quot;*12,&quot;Stock Master Maintanance&quot;,&quot; &quot;*13" style="shape=parallelogram;html=1;strokeWidth=2;perimeter=parallelogramPerimeter;whiteSpace=wrap;rounded=1;arcSize=12;size=0.10416666666666667;fontFamily=Times New Roman;" parent="1" vertex="1">
          <mxGeometry x="318" y="415" width="300" height="50" as="geometry" />
        </mxCell>
        <mxCell id="kXZ6oA90xBGrxWSpwfeU-6" style="edgeStyle=orthogonalEdgeStyle;rounded=0;orthogonalLoop=1;jettySize=auto;html=1;exitX=0.5;exitY=1;exitDx=0;exitDy=0;entryX=0.5;entryY=0;entryDx=0;entryDy=0;fontFamily=Times New Roman;" parent="1" source="M0Trja-rhTZAoE6dcsw2-7" target="1YfcAK6Wo0iF7Ah_QqXS-3" edge="1">
          <mxGeometry relative="1" as="geometry" />
        </mxCell>
        <mxCell id="M0Trja-rhTZAoE6dcsw2-7" value="PRINT&lt;br&gt;&quot;&amp;lt;M&amp;gt;odify \t\t t\t&amp;lt;Q&amp;gt;uit&quot;&lt;br&gt;&quot;-&quot;*50" style="shape=parallelogram;html=1;strokeWidth=2;perimeter=parallelogramPerimeter;whiteSpace=wrap;rounded=1;arcSize=12;size=0.125;fontFamily=Times New Roman;" parent="1" vertex="1">
          <mxGeometry x="313" y="578" width="310" height="50" as="geometry" />
        </mxCell>
        <mxCell id="2WYQGDhwoJ8-kUKmURnf-12" value="" style="edgeStyle=orthogonalEdgeStyle;rounded=0;orthogonalLoop=1;jettySize=auto;html=1;fontFamily=Times New Roman;" parent="1" source="X6Lzgd3WgfE9ZMlhYXXn-1" edge="1">
          <mxGeometry relative="1" as="geometry">
            <mxPoint x="468" y="823" as="targetPoint" />
          </mxGeometry>
        </mxCell>
        <mxCell id="X6Lzgd3WgfE9ZMlhYXXn-1" value="INPUT&lt;br&gt;opt" style="shape=parallelogram;html=1;strokeWidth=2;perimeter=parallelogramPerimeter;whiteSpace=wrap;rounded=1;arcSize=12;size=0.23;fontFamily=Times New Roman;" parent="1" vertex="1">
          <mxGeometry x="418" y="745" width="100" height="50" as="geometry" />
        </mxCell>
        <mxCell id="X6Lzgd3WgfE9ZMlhYXXn-20" value="True" style="text;html=1;align=center;verticalAlign=middle;resizable=0;points=[];autosize=1;strokeColor=none;fillColor=none;fontFamily=Times New Roman;" parent="1" vertex="1">
          <mxGeometry x="468" y="300" width="50" height="30" as="geometry" />
        </mxCell>
        <mxCell id="X6Lzgd3WgfE9ZMlhYXXn-21" value="False" style="text;html=1;align=center;verticalAlign=middle;resizable=0;points=[];autosize=1;strokeColor=none;fillColor=none;fontFamily=Times New Roman;" parent="1" vertex="1">
          <mxGeometry x="533" y="230" width="50" height="30" as="geometry" />
        </mxCell>
        <mxCell id="kXZ6oA90xBGrxWSpwfeU-4" style="edgeStyle=orthogonalEdgeStyle;rounded=0;orthogonalLoop=1;jettySize=auto;html=1;exitX=0.5;exitY=1;exitDx=0;exitDy=0;entryX=0.5;entryY=0;entryDx=0;entryDy=0;fontFamily=Times New Roman;" parent="1" source="1YfcAK6Wo0iF7Ah_QqXS-1" target="M0Trja-rhTZAoE6dcsw2-7" edge="1">
          <mxGeometry relative="1" as="geometry" />
        </mxCell>
        <mxCell id="1YfcAK6Wo0iF7Ah_QqXS-1" value="" style="verticalLabelPosition=bottom;verticalAlign=top;html=1;shape=process;whiteSpace=wrap;rounded=1;size=0.14;arcSize=6;fontFamily=Times New Roman;" parent="1" vertex="1">
          <mxGeometry x="403" y="491" width="130" height="60" as="geometry" />
        </mxCell>
        <mxCell id="1YfcAK6Wo0iF7Ah_QqXS-2" value="displayStk(Stk)" style="text;html=1;align=center;verticalAlign=middle;resizable=0;points=[];autosize=1;strokeColor=none;fillColor=none;fontFamily=Times New Roman;" parent="1" vertex="1">
          <mxGeometry x="418" y="506" width="100" height="30" as="geometry" />
        </mxCell>
        <mxCell id="1YfcAK6Wo0iF7Ah_QqXS-9" style="edgeStyle=orthogonalEdgeStyle;rounded=0;orthogonalLoop=1;jettySize=auto;html=1;exitX=0.5;exitY=1;exitDx=0;exitDy=0;entryX=0.5;entryY=0;entryDx=0;entryDy=0;fontFamily=Times New Roman;" parent="1" source="1YfcAK6Wo0iF7Ah_QqXS-3" target="X6Lzgd3WgfE9ZMlhYXXn-1" edge="1">
          <mxGeometry relative="1" as="geometry" />
        </mxCell>
        <mxCell id="1YfcAK6Wo0iF7Ah_QqXS-3" value="" style="verticalLabelPosition=bottom;verticalAlign=top;html=1;shape=process;whiteSpace=wrap;rounded=1;size=0.14;arcSize=6;fontFamily=Times New Roman;" parent="1" vertex="1">
          <mxGeometry x="418" y="660" width="100" height="60" as="geometry" />
        </mxCell>
        <mxCell id="1YfcAK6Wo0iF7Ah_QqXS-4" value="stockAlert()" style="text;html=1;align=center;verticalAlign=middle;resizable=0;points=[];autosize=1;strokeColor=none;fillColor=none;fontFamily=Times New Roman;" parent="1" vertex="1">
          <mxGeometry x="428" y="675" width="80" height="30" as="geometry" />
        </mxCell>
        <mxCell id="CMMBqR-mVuPqP5uvG2Wn-68" value="END" style="strokeWidth=2;html=1;shape=mxgraph.flowchart.terminator;whiteSpace=wrap;fontFamily=Times New Roman;" parent="1" vertex="1">
          <mxGeometry x="680" y="320" width="100" height="60" as="geometry" />
        </mxCell>
        <mxCell id="kXZ6oA90xBGrxWSpwfeU-3" style="edgeStyle=orthogonalEdgeStyle;rounded=0;orthogonalLoop=1;jettySize=auto;html=1;exitX=0.5;exitY=1;exitDx=0;exitDy=0;entryX=0.506;entryY=-0.2;entryDx=0;entryDy=0;entryPerimeter=0;fontFamily=Times New Roman;" parent="1" source="M0Trja-rhTZAoE6dcsw2-6" target="1YfcAK6Wo0iF7Ah_QqXS-2" edge="1">
          <mxGeometry relative="1" as="geometry" />
        </mxCell>
        <mxCell id="nxzO52vMOkb4AxywzQcv-1" value="" style="verticalLabelPosition=bottom;verticalAlign=top;html=1;shape=offPageConnector;rounded=0;size=0.5;fontFamily=Times New Roman;" parent="1" vertex="1">
          <mxGeometry x="447" y="820" width="42" height="40" as="geometry" />
        </mxCell>
        <mxCell id="nxzO52vMOkb4AxywzQcv-4" value="1" style="text;html=1;align=center;verticalAlign=middle;resizable=0;points=[];autosize=1;strokeColor=none;fillColor=none;fontFamily=Times New Roman;" parent="1" vertex="1">
          <mxGeometry x="453" y="820" width="30" height="30" as="geometry" />
        </mxCell>
        <mxCell id="nxzO52vMOkb4AxywzQcv-5" value="" style="verticalLabelPosition=bottom;verticalAlign=top;html=1;shape=offPageConnector;rounded=0;size=0.5;fontFamily=Times New Roman;" parent="1" vertex="1">
          <mxGeometry x="447" y="870" width="42" height="40" as="geometry" />
        </mxCell>
        <mxCell id="nxzO52vMOkb4AxywzQcv-6" value="2" style="text;html=1;align=center;verticalAlign=middle;resizable=0;points=[];autosize=1;strokeColor=none;fillColor=none;fontFamily=Times New Roman;" parent="1" vertex="1">
          <mxGeometry x="453" y="870" width="30" height="30" as="geometry" />
        </mxCell>
        <mxCell id="NbC2vh0RPXENm66BSPHg-1" style="edgeStyle=orthogonalEdgeStyle;rounded=0;orthogonalLoop=1;jettySize=auto;html=1;exitX=0.5;exitY=1;exitDx=0;exitDy=0;entryX=0;entryY=0.5;entryDx=0;entryDy=0;entryPerimeter=0;fontFamily=Times New Roman;" parent="1" source="nxzO52vMOkb4AxywzQcv-5" target="M0Trja-rhTZAoE6dcsw2-4" edge="1">
          <mxGeometry relative="1" as="geometry">
            <Array as="points">
              <mxPoint x="468" y="930" />
              <mxPoint x="230" y="930" />
              <mxPoint x="230" y="260" />
            </Array>
          </mxGeometry>
        </mxCell>
        <mxCell id="HqhBxMOIQdCA0ISxjxXC-1" value="#InvManag()" style="text;html=1;align=center;verticalAlign=middle;resizable=0;points=[];autosize=1;strokeColor=none;fillColor=none;fontFamily=Times New Roman;" parent="1" vertex="1">
          <mxGeometry x="35" y="58" width="90" height="30" as="geometry" />
        </mxCell>
      </root>
    </mxGraphModel>
  </diagram>
  <diagram name="InvManag() 1-2" id="n5TliU4Wlv9_xF0hXxRH">
    <mxGraphModel dx="1036" dy="606" grid="1" gridSize="10" guides="1" tooltips="1" connect="1" arrows="1" fold="1" page="1" pageScale="1" pageWidth="850" pageHeight="1100" math="0" shadow="0">
      <root>
        <mxCell id="9uOwfIbB6cRgpO1X3pLE-0" />
        <mxCell id="9uOwfIbB6cRgpO1X3pLE-1" parent="9uOwfIbB6cRgpO1X3pLE-0" />
        <mxCell id="gpElfUWO9y7n16kC2uHw-0" style="edgeStyle=orthogonalEdgeStyle;rounded=0;orthogonalLoop=1;jettySize=auto;html=1;exitX=0;exitY=0.5;exitDx=0;exitDy=0;exitPerimeter=0;entryX=0.5;entryY=0;entryDx=0;entryDy=0;fontFamily=Times New Roman;" parent="9uOwfIbB6cRgpO1X3pLE-1" source="gpElfUWO9y7n16kC2uHw-1" target="gpElfUWO9y7n16kC2uHw-7" edge="1">
          <mxGeometry relative="1" as="geometry" />
        </mxCell>
        <mxCell id="gpElfUWO9y7n16kC2uHw-1" value="opt==&quot;Q&quot;" style="strokeWidth=2;html=1;shape=mxgraph.flowchart.decision;whiteSpace=wrap;fontFamily=Times New Roman;" parent="9uOwfIbB6cRgpO1X3pLE-1" vertex="1">
          <mxGeometry x="231" y="73" width="100" height="100" as="geometry" />
        </mxCell>
        <mxCell id="gpElfUWO9y7n16kC2uHw-2" value="loop=False" style="rounded=1;whiteSpace=wrap;html=1;absoluteArcSize=1;arcSize=14;strokeWidth=2;fontFamily=Times New Roman;" parent="9uOwfIbB6cRgpO1X3pLE-1" vertex="1">
          <mxGeometry x="79.5" y="273" width="105" height="50" as="geometry" />
        </mxCell>
        <mxCell id="gpElfUWO9y7n16kC2uHw-5" style="edgeStyle=orthogonalEdgeStyle;rounded=0;orthogonalLoop=1;jettySize=auto;html=1;exitX=1;exitY=0.5;exitDx=0;exitDy=0;exitPerimeter=0;entryX=0.5;entryY=0;entryDx=0;entryDy=0;entryPerimeter=0;fontFamily=Times New Roman;" parent="9uOwfIbB6cRgpO1X3pLE-1" source="gpElfUWO9y7n16kC2uHw-1" edge="1">
          <mxGeometry relative="1" as="geometry">
            <mxPoint x="379" y="183" as="targetPoint" />
          </mxGeometry>
        </mxCell>
        <mxCell id="gpElfUWO9y7n16kC2uHw-6" value="" style="edgeStyle=orthogonalEdgeStyle;rounded=0;orthogonalLoop=1;jettySize=auto;html=1;fontFamily=Times New Roman;" parent="9uOwfIbB6cRgpO1X3pLE-1" source="gpElfUWO9y7n16kC2uHw-7" target="gpElfUWO9y7n16kC2uHw-2" edge="1">
          <mxGeometry relative="1" as="geometry" />
        </mxCell>
        <mxCell id="gpElfUWO9y7n16kC2uHw-7" value="PRINT&lt;br&gt;&quot;-&quot;*11,&quot;Successfully Quit to Menu&quot;,&quot;-&quot;*12" style="shape=parallelogram;html=1;strokeWidth=2;perimeter=parallelogramPerimeter;whiteSpace=wrap;rounded=1;arcSize=12;size=0.09090909090909091;fontFamily=Times New Roman;" parent="9uOwfIbB6cRgpO1X3pLE-1" vertex="1">
          <mxGeometry x="17" y="191" width="230" height="50" as="geometry" />
        </mxCell>
        <mxCell id="5lNER5U8elK0uNWXvrFg-0" style="edgeStyle=orthogonalEdgeStyle;rounded=0;orthogonalLoop=1;jettySize=auto;html=1;exitX=0;exitY=0.5;exitDx=0;exitDy=0;exitPerimeter=0;entryX=0.5;entryY=0;entryDx=0;entryDy=0;fontFamily=Times New Roman;" parent="9uOwfIbB6cRgpO1X3pLE-1" source="gpElfUWO9y7n16kC2uHw-9" target="Z1RXnlpg-5mXkZXjF8oi-2" edge="1">
          <mxGeometry relative="1" as="geometry" />
        </mxCell>
        <mxCell id="5lNER5U8elK0uNWXvrFg-1" style="edgeStyle=orthogonalEdgeStyle;rounded=0;orthogonalLoop=1;jettySize=auto;html=1;exitX=1;exitY=0.5;exitDx=0;exitDy=0;exitPerimeter=0;fontFamily=Times New Roman;" parent="9uOwfIbB6cRgpO1X3pLE-1" source="gpElfUWO9y7n16kC2uHw-9" target="gpElfUWO9y7n16kC2uHw-20" edge="1">
          <mxGeometry relative="1" as="geometry" />
        </mxCell>
        <mxCell id="gpElfUWO9y7n16kC2uHw-9" value="opt==&quot;M&quot;" style="strokeWidth=2;html=1;shape=mxgraph.flowchart.decision;whiteSpace=wrap;fontFamily=Times New Roman;" parent="9uOwfIbB6cRgpO1X3pLE-1" vertex="1">
          <mxGeometry x="325" y="180" width="100" height="100" as="geometry" />
        </mxCell>
        <mxCell id="gpElfUWO9y7n16kC2uHw-20" value="PRINT&lt;br&gt;&quot;-&quot;*10,&quot;Invalid Option, Pls Try Again&quot;,&quot;-&quot;*10" style="shape=parallelogram;html=1;strokeWidth=2;perimeter=parallelogramPerimeter;whiteSpace=wrap;rounded=1;arcSize=12;size=0.11363636363636365;fontFamily=Times New Roman;" parent="9uOwfIbB6cRgpO1X3pLE-1" vertex="1">
          <mxGeometry x="366" y="306" width="280" height="50" as="geometry" />
        </mxCell>
        <mxCell id="gpElfUWO9y7n16kC2uHw-21" value="INPUT&lt;br&gt;()" style="shape=parallelogram;html=1;strokeWidth=2;perimeter=parallelogramPerimeter;whiteSpace=wrap;rounded=1;arcSize=12;size=0.10714285714285714;fontFamily=Times New Roman;" parent="9uOwfIbB6cRgpO1X3pLE-1" vertex="1">
          <mxGeometry x="415" y="435" width="160" height="50" as="geometry" />
        </mxCell>
        <mxCell id="gpElfUWO9y7n16kC2uHw-22" style="edgeStyle=orthogonalEdgeStyle;rounded=0;orthogonalLoop=1;jettySize=auto;html=1;exitX=0.5;exitY=1;exitDx=0;exitDy=0;entryX=0.56;entryY=0.04;entryDx=0;entryDy=0;entryPerimeter=0;fontFamily=Times New Roman;" parent="9uOwfIbB6cRgpO1X3pLE-1" source="gpElfUWO9y7n16kC2uHw-20" target="gpElfUWO9y7n16kC2uHw-21" edge="1">
          <mxGeometry relative="1" as="geometry" />
        </mxCell>
        <mxCell id="gpElfUWO9y7n16kC2uHw-29" value="False" style="text;html=1;align=center;verticalAlign=middle;resizable=0;points=[];autosize=1;strokeColor=none;fillColor=none;fontFamily=Times New Roman;" parent="9uOwfIbB6cRgpO1X3pLE-1" vertex="1">
          <mxGeometry x="430" y="191" width="50" height="30" as="geometry" />
        </mxCell>
        <mxCell id="gpElfUWO9y7n16kC2uHw-30" value="" style="verticalLabelPosition=bottom;verticalAlign=top;html=1;shape=mxgraph.flowchart.on-page_reference;fontFamily=Times New Roman;" parent="9uOwfIbB6cRgpO1X3pLE-1" vertex="1">
          <mxGeometry x="355" y="535" width="60" height="60" as="geometry" />
        </mxCell>
        <mxCell id="gpElfUWO9y7n16kC2uHw-32" value="True" style="text;html=1;align=center;verticalAlign=middle;resizable=0;points=[];autosize=1;strokeColor=none;fillColor=none;fontFamily=Times New Roman;" parent="9uOwfIbB6cRgpO1X3pLE-1" vertex="1">
          <mxGeometry x="283" y="191" width="50" height="30" as="geometry" />
        </mxCell>
        <mxCell id="gpElfUWO9y7n16kC2uHw-41" value="True" style="text;html=1;align=center;verticalAlign=middle;resizable=0;points=[];autosize=1;strokeColor=none;fillColor=none;fontFamily=Times New Roman;" parent="9uOwfIbB6cRgpO1X3pLE-1" vertex="1">
          <mxGeometry x="186" y="91" width="50" height="30" as="geometry" />
        </mxCell>
        <mxCell id="gpElfUWO9y7n16kC2uHw-42" value="False" style="text;html=1;align=center;verticalAlign=middle;resizable=0;points=[];autosize=1;strokeColor=none;fillColor=none;fontFamily=Times New Roman;" parent="9uOwfIbB6cRgpO1X3pLE-1" vertex="1">
          <mxGeometry x="346" y="91" width="50" height="30" as="geometry" />
        </mxCell>
        <mxCell id="gpElfUWO9y7n16kC2uHw-62" value="" style="edgeStyle=orthogonalEdgeStyle;rounded=0;orthogonalLoop=1;jettySize=auto;html=1;fontFamily=Times New Roman;" parent="9uOwfIbB6cRgpO1X3pLE-1" source="gpElfUWO9y7n16kC2uHw-43" target="gpElfUWO9y7n16kC2uHw-61" edge="1">
          <mxGeometry relative="1" as="geometry" />
        </mxCell>
        <mxCell id="gpElfUWO9y7n16kC2uHw-43" value="" style="verticalLabelPosition=bottom;verticalAlign=top;html=1;shape=mxgraph.flowchart.on-page_reference;fontFamily=Times New Roman;" parent="9uOwfIbB6cRgpO1X3pLE-1" vertex="1">
          <mxGeometry x="238" y="689" width="60" height="60" as="geometry" />
        </mxCell>
        <mxCell id="gpElfUWO9y7n16kC2uHw-44" style="edgeStyle=orthogonalEdgeStyle;rounded=0;orthogonalLoop=1;jettySize=auto;html=1;exitX=0.5;exitY=1;exitDx=0;exitDy=0;entryX=0;entryY=0.5;entryDx=0;entryDy=0;entryPerimeter=0;fontFamily=Times New Roman;" parent="9uOwfIbB6cRgpO1X3pLE-1" source="gpElfUWO9y7n16kC2uHw-2" target="gpElfUWO9y7n16kC2uHw-43" edge="1">
          <mxGeometry relative="1" as="geometry" />
        </mxCell>
        <mxCell id="gpElfUWO9y7n16kC2uHw-57" value="" style="verticalLabelPosition=bottom;verticalAlign=top;html=1;shape=offPageConnector;rounded=0;size=0.5;fontFamily=Times New Roman;" parent="9uOwfIbB6cRgpO1X3pLE-1" vertex="1">
          <mxGeometry x="259.5" y="13" width="43" height="40" as="geometry" />
        </mxCell>
        <mxCell id="gpElfUWO9y7n16kC2uHw-58" value="1" style="text;html=1;align=center;verticalAlign=middle;resizable=0;points=[];autosize=1;strokeColor=none;fillColor=none;fontFamily=Times New Roman;" parent="9uOwfIbB6cRgpO1X3pLE-1" vertex="1">
          <mxGeometry x="265.5" y="13" width="30" height="30" as="geometry" />
        </mxCell>
        <mxCell id="gpElfUWO9y7n16kC2uHw-59" style="edgeStyle=orthogonalEdgeStyle;rounded=0;orthogonalLoop=1;jettySize=auto;html=1;exitX=0.5;exitY=1;exitDx=0;exitDy=0;entryX=0.5;entryY=0;entryDx=0;entryDy=0;entryPerimeter=0;fontFamily=Times New Roman;" parent="9uOwfIbB6cRgpO1X3pLE-1" source="gpElfUWO9y7n16kC2uHw-57" target="gpElfUWO9y7n16kC2uHw-1" edge="1">
          <mxGeometry relative="1" as="geometry" />
        </mxCell>
        <mxCell id="gpElfUWO9y7n16kC2uHw-60" value="" style="verticalLabelPosition=bottom;verticalAlign=top;html=1;shape=offPageConnector;rounded=0;size=0.5;fontFamily=Times New Roman;" parent="9uOwfIbB6cRgpO1X3pLE-1" vertex="1">
          <mxGeometry x="247" y="769" width="43" height="40" as="geometry" />
        </mxCell>
        <mxCell id="gpElfUWO9y7n16kC2uHw-61" value="2" style="text;html=1;align=center;verticalAlign=middle;resizable=0;points=[];autosize=1;strokeColor=none;fillColor=none;fontFamily=Times New Roman;" parent="9uOwfIbB6cRgpO1X3pLE-1" vertex="1">
          <mxGeometry x="253" y="769" width="30" height="30" as="geometry" />
        </mxCell>
        <mxCell id="gpElfUWO9y7n16kC2uHw-64" value="#InvManag() 1-2" style="text;html=1;align=center;verticalAlign=middle;resizable=0;points=[];autosize=1;strokeColor=none;fillColor=none;fontFamily=Times New Roman;" parent="9uOwfIbB6cRgpO1X3pLE-1" vertex="1">
          <mxGeometry x="5" y="18" width="110" height="30" as="geometry" />
        </mxCell>
        <mxCell id="Z1RXnlpg-5mXkZXjF8oi-2" value="Stk=ModifyStk()" style="shape=process;whiteSpace=wrap;html=1;backgroundOutline=1;fontFamily=Times New Roman;" parent="9uOwfIbB6cRgpO1X3pLE-1" vertex="1">
          <mxGeometry x="235" y="375" width="120" height="60" as="geometry" />
        </mxCell>
        <mxCell id="Z1RXnlpg-5mXkZXjF8oi-5" style="edgeStyle=orthogonalEdgeStyle;rounded=0;orthogonalLoop=1;jettySize=auto;html=1;exitX=0.5;exitY=1;exitDx=0;exitDy=0;entryX=1;entryY=0.5;entryDx=0;entryDy=0;entryPerimeter=0;fontFamily=Times New Roman;" parent="9uOwfIbB6cRgpO1X3pLE-1" source="gpElfUWO9y7n16kC2uHw-21" target="gpElfUWO9y7n16kC2uHw-30" edge="1">
          <mxGeometry relative="1" as="geometry" />
        </mxCell>
        <mxCell id="5lNER5U8elK0uNWXvrFg-2" style="edgeStyle=orthogonalEdgeStyle;rounded=0;orthogonalLoop=1;jettySize=auto;html=1;exitX=0.5;exitY=1;exitDx=0;exitDy=0;entryX=0;entryY=0.5;entryDx=0;entryDy=0;entryPerimeter=0;fontFamily=Times New Roman;" parent="9uOwfIbB6cRgpO1X3pLE-1" source="Z1RXnlpg-5mXkZXjF8oi-2" target="gpElfUWO9y7n16kC2uHw-30" edge="1">
          <mxGeometry relative="1" as="geometry" />
        </mxCell>
        <mxCell id="5lNER5U8elK0uNWXvrFg-3" style="edgeStyle=orthogonalEdgeStyle;rounded=0;orthogonalLoop=1;jettySize=auto;html=1;exitX=0.5;exitY=1;exitDx=0;exitDy=0;exitPerimeter=0;entryX=1;entryY=0.5;entryDx=0;entryDy=0;entryPerimeter=0;fontFamily=Times New Roman;" parent="9uOwfIbB6cRgpO1X3pLE-1" source="gpElfUWO9y7n16kC2uHw-30" target="gpElfUWO9y7n16kC2uHw-43" edge="1">
          <mxGeometry relative="1" as="geometry" />
        </mxCell>
      </root>
    </mxGraphModel>
  </diagram>
  <diagram id="E-l_sv35gQP6rBPoG-q4" name="displayStk(Stk)">
    <mxGraphModel dx="1036" dy="606" grid="1" gridSize="10" guides="1" tooltips="1" connect="1" arrows="1" fold="1" page="1" pageScale="1" pageWidth="850" pageHeight="1100" math="0" shadow="0">
      <root>
        <mxCell id="0" />
        <mxCell id="1" parent="0" />
        <mxCell id="b-dD0_0wMbCo97cCxDxK-19" style="edgeStyle=orthogonalEdgeStyle;rounded=0;orthogonalLoop=1;jettySize=auto;html=1;exitX=0.5;exitY=1;exitDx=0;exitDy=0;exitPerimeter=0;entryX=0.5;entryY=0;entryDx=0;entryDy=0;fontFamily=Times New Roman;" parent="1" source="b-dD0_0wMbCo97cCxDxK-20" target="b-dD0_0wMbCo97cCxDxK-22" edge="1">
          <mxGeometry relative="1" as="geometry" />
        </mxCell>
        <mxCell id="b-dD0_0wMbCo97cCxDxK-20" value="START" style="strokeWidth=2;html=1;shape=mxgraph.flowchart.terminator;whiteSpace=wrap;fontFamily=Times New Roman;" parent="1" vertex="1">
          <mxGeometry x="387" y="50" width="100" height="60" as="geometry" />
        </mxCell>
        <mxCell id="b-dD0_0wMbCo97cCxDxK-21" style="edgeStyle=orthogonalEdgeStyle;rounded=0;orthogonalLoop=1;jettySize=auto;html=1;exitX=0.5;exitY=1;exitDx=0;exitDy=0;entryX=0.5;entryY=0;entryDx=0;entryDy=0;fontFamily=Times New Roman;" parent="1" source="b-dD0_0wMbCo97cCxDxK-22" target="b-dD0_0wMbCo97cCxDxK-23" edge="1">
          <mxGeometry relative="1" as="geometry" />
        </mxCell>
        <mxCell id="b-dD0_0wMbCo97cCxDxK-22" value="PRINT &quot;-&quot;*50" style="shape=parallelogram;html=1;strokeWidth=2;perimeter=parallelogramPerimeter;whiteSpace=wrap;rounded=1;arcSize=12;size=0.07500000000000001;fontFamily=Times New Roman;" parent="1" vertex="1">
          <mxGeometry x="387" y="140" width="100" height="60" as="geometry" />
        </mxCell>
        <mxCell id="b-dD0_0wMbCo97cCxDxK-23" value="i = 0" style="rounded=1;whiteSpace=wrap;html=1;absoluteArcSize=1;arcSize=14;strokeWidth=2;fontFamily=Times New Roman;" parent="1" vertex="1">
          <mxGeometry x="407" y="230" width="60" height="40" as="geometry" />
        </mxCell>
        <mxCell id="b-dD0_0wMbCo97cCxDxK-24" style="edgeStyle=orthogonalEdgeStyle;rounded=0;orthogonalLoop=1;jettySize=auto;html=1;exitX=0.5;exitY=1;exitDx=0;exitDy=0;exitPerimeter=0;fontFamily=Times New Roman;" parent="1" source="b-dD0_0wMbCo97cCxDxK-26" edge="1">
          <mxGeometry relative="1" as="geometry">
            <mxPoint x="437" y="400" as="targetPoint" />
          </mxGeometry>
        </mxCell>
        <mxCell id="b-dD0_0wMbCo97cCxDxK-25" style="edgeStyle=orthogonalEdgeStyle;rounded=0;orthogonalLoop=1;jettySize=auto;html=1;exitX=1;exitY=0.5;exitDx=0;exitDy=0;exitPerimeter=0;fontFamily=Times New Roman;" parent="1" source="b-dD0_0wMbCo97cCxDxK-26" target="b-dD0_0wMbCo97cCxDxK-32" edge="1">
          <mxGeometry relative="1" as="geometry">
            <mxPoint x="607" y="630" as="targetPoint" />
          </mxGeometry>
        </mxCell>
        <mxCell id="b-dD0_0wMbCo97cCxDxK-26" value="i &amp;lt; len (Stk)" style="strokeWidth=2;html=1;shape=mxgraph.flowchart.decision;whiteSpace=wrap;fontFamily=Times New Roman;" parent="1" vertex="1">
          <mxGeometry x="387" y="290" width="100" height="70" as="geometry" />
        </mxCell>
        <mxCell id="b-dD0_0wMbCo97cCxDxK-27" style="edgeStyle=orthogonalEdgeStyle;rounded=0;orthogonalLoop=1;jettySize=auto;html=1;exitX=0.5;exitY=1;exitDx=0;exitDy=0;entryX=0.5;entryY=0;entryDx=0;entryDy=0;fontFamily=Times New Roman;" parent="1" source="b-dD0_0wMbCo97cCxDxK-28" target="b-dD0_0wMbCo97cCxDxK-29" edge="1">
          <mxGeometry relative="1" as="geometry" />
        </mxCell>
        <mxCell id="b-dD0_0wMbCo97cCxDxK-28" value="PRINT &lt;br&gt;&quot;%6s&amp;nbsp; %-22s&amp;nbsp; %8d&quot;%(Stk[i][0], Stk[i][1], int(Stk[i][3]))&lt;br&gt;&quot;-&quot;*50" style="shape=parallelogram;html=1;strokeWidth=2;perimeter=parallelogramPerimeter;whiteSpace=wrap;rounded=1;arcSize=33;size=0.08035714285714285;fontFamily=Times New Roman;" parent="1" vertex="1">
          <mxGeometry x="283.5" y="400" width="307" height="90" as="geometry" />
        </mxCell>
        <mxCell id="b-dD0_0wMbCo97cCxDxK-29" value="i += 1" style="rounded=1;whiteSpace=wrap;html=1;absoluteArcSize=1;arcSize=14;strokeWidth=2;fontFamily=Times New Roman;" parent="1" vertex="1">
          <mxGeometry x="387" y="520" width="100" height="50" as="geometry" />
        </mxCell>
        <mxCell id="b-dD0_0wMbCo97cCxDxK-30" style="edgeStyle=orthogonalEdgeStyle;rounded=0;orthogonalLoop=1;jettySize=auto;html=1;exitX=0.5;exitY=1;exitDx=0;exitDy=0;entryX=0.5;entryY=0;entryDx=0;entryDy=0;entryPerimeter=0;fontFamily=Times New Roman;" parent="1" source="b-dD0_0wMbCo97cCxDxK-23" target="b-dD0_0wMbCo97cCxDxK-26" edge="1">
          <mxGeometry relative="1" as="geometry" />
        </mxCell>
        <mxCell id="b-dD0_0wMbCo97cCxDxK-31" style="edgeStyle=orthogonalEdgeStyle;rounded=0;orthogonalLoop=1;jettySize=auto;html=1;exitX=0.5;exitY=1;exitDx=0;exitDy=0;entryX=0;entryY=0.5;entryDx=0;entryDy=0;entryPerimeter=0;fontFamily=Times New Roman;" parent="1" source="b-dD0_0wMbCo97cCxDxK-29" target="b-dD0_0wMbCo97cCxDxK-26" edge="1">
          <mxGeometry relative="1" as="geometry">
            <Array as="points">
              <mxPoint x="437" y="590" />
              <mxPoint x="210" y="590" />
              <mxPoint x="210" y="325" />
            </Array>
          </mxGeometry>
        </mxCell>
        <mxCell id="b-dD0_0wMbCo97cCxDxK-32" value="PRINT &quot;-&quot;*50" style="shape=parallelogram;html=1;strokeWidth=2;perimeter=parallelogramPerimeter;whiteSpace=wrap;rounded=1;arcSize=23;size=0.15000000000000002;fontFamily=Times New Roman;" parent="1" vertex="1">
          <mxGeometry x="620" y="590" width="110" height="60" as="geometry" />
        </mxCell>
        <mxCell id="b-dD0_0wMbCo97cCxDxK-33" value="END" style="strokeWidth=2;html=1;shape=mxgraph.flowchart.terminator;whiteSpace=wrap;fontFamily=Times New Roman;" parent="1" vertex="1">
          <mxGeometry x="635" y="690" width="80" height="50" as="geometry" />
        </mxCell>
        <mxCell id="b-dD0_0wMbCo97cCxDxK-34" style="edgeStyle=orthogonalEdgeStyle;rounded=0;orthogonalLoop=1;jettySize=auto;html=1;exitX=0.5;exitY=1;exitDx=0;exitDy=0;entryX=0.5;entryY=0;entryDx=0;entryDy=0;entryPerimeter=0;fontFamily=Times New Roman;" parent="1" source="b-dD0_0wMbCo97cCxDxK-32" target="b-dD0_0wMbCo97cCxDxK-33" edge="1">
          <mxGeometry relative="1" as="geometry" />
        </mxCell>
        <mxCell id="b-dD0_0wMbCo97cCxDxK-35" value="True" style="text;html=1;align=center;verticalAlign=middle;resizable=0;points=[];autosize=1;strokeColor=none;fillColor=none;fontFamily=Times New Roman;" parent="1" vertex="1">
          <mxGeometry x="452" y="348" width="50" height="30" as="geometry" />
        </mxCell>
        <mxCell id="b-dD0_0wMbCo97cCxDxK-36" value="False" style="text;html=1;align=center;verticalAlign=middle;resizable=0;points=[];autosize=1;strokeColor=none;fillColor=none;fontFamily=Times New Roman;" parent="1" vertex="1">
          <mxGeometry x="492" y="288" width="50" height="30" as="geometry" />
        </mxCell>
        <mxCell id="IlvTnZJOpa9C850eH-dP-1" value="#displayStk(Stk)" style="text;whiteSpace=wrap;fontFamily=Times New Roman;" parent="1" vertex="1">
          <mxGeometry x="50" y="40" width="110" height="40" as="geometry" />
        </mxCell>
      </root>
    </mxGraphModel>
  </diagram>
  <diagram id="oVVMbwb4O9gvRLvjaD9-" name="stockAlert()">
    <mxGraphModel dx="1036" dy="606" grid="1" gridSize="10" guides="1" tooltips="1" connect="1" arrows="1" fold="1" page="1" pageScale="1" pageWidth="850" pageHeight="1100" math="0" shadow="0">
      <root>
        <mxCell id="0" />
        <mxCell id="1" parent="0" />
        <mxCell id="h2Dj5mvBBgrfihcjLYoL-4" value="" style="edgeStyle=orthogonalEdgeStyle;rounded=0;orthogonalLoop=1;jettySize=auto;html=1;fontFamily=Times New Roman;" parent="1" source="h2Dj5mvBBgrfihcjLYoL-1" target="h2Dj5mvBBgrfihcjLYoL-3" edge="1">
          <mxGeometry relative="1" as="geometry" />
        </mxCell>
        <mxCell id="h2Dj5mvBBgrfihcjLYoL-1" value="START" style="strokeWidth=2;html=1;shape=mxgraph.flowchart.terminator;whiteSpace=wrap;fontFamily=Times New Roman;" parent="1" vertex="1">
          <mxGeometry x="360" y="50" width="100" height="60" as="geometry" />
        </mxCell>
        <mxCell id="h2Dj5mvBBgrfihcjLYoL-2" value="END" style="strokeWidth=2;html=1;shape=mxgraph.flowchart.terminator;whiteSpace=wrap;fontFamily=Times New Roman;" parent="1" vertex="1">
          <mxGeometry x="350" y="860" width="100" height="60" as="geometry" />
        </mxCell>
        <mxCell id="y14Xe_pb24tuC2A-BZMl-3" value="" style="edgeStyle=orthogonalEdgeStyle;rounded=0;orthogonalLoop=1;jettySize=auto;html=1;fontFamily=Times New Roman;" parent="1" source="h2Dj5mvBBgrfihcjLYoL-3" target="y14Xe_pb24tuC2A-BZMl-1" edge="1">
          <mxGeometry relative="1" as="geometry" />
        </mxCell>
        <mxCell id="h2Dj5mvBBgrfihcjLYoL-3" value="Stk=main.readFile(&quot;assfile&quot;,&quot;r&quot;)&lt;br&gt;i=0" style="rounded=1;whiteSpace=wrap;html=1;absoluteArcSize=1;arcSize=14;strokeWidth=2;fontFamily=Times New Roman;" parent="1" vertex="1">
          <mxGeometry x="300" y="140" width="220" height="70" as="geometry" />
        </mxCell>
        <mxCell id="y14Xe_pb24tuC2A-BZMl-4" value="" style="edgeStyle=orthogonalEdgeStyle;rounded=0;orthogonalLoop=1;jettySize=auto;html=1;fontFamily=Times New Roman;" parent="1" source="y14Xe_pb24tuC2A-BZMl-1" target="y14Xe_pb24tuC2A-BZMl-2" edge="1">
          <mxGeometry relative="1" as="geometry" />
        </mxCell>
        <mxCell id="y14Xe_pb24tuC2A-BZMl-19" style="edgeStyle=orthogonalEdgeStyle;rounded=0;orthogonalLoop=1;jettySize=auto;html=1;exitX=1;exitY=0.5;exitDx=0;exitDy=0;exitPerimeter=0;entryX=0.5;entryY=0;entryDx=0;entryDy=0;fontFamily=Times New Roman;" parent="1" source="y14Xe_pb24tuC2A-BZMl-1" target="y14Xe_pb24tuC2A-BZMl-18" edge="1">
          <mxGeometry relative="1" as="geometry" />
        </mxCell>
        <mxCell id="y14Xe_pb24tuC2A-BZMl-1" value="i&amp;lt; len(Stk)" style="strokeWidth=2;html=1;shape=mxgraph.flowchart.decision;whiteSpace=wrap;fontFamily=Times New Roman;" parent="1" vertex="1">
          <mxGeometry x="360" y="250" width="100" height="100" as="geometry" />
        </mxCell>
        <mxCell id="imiomDpXtzbB730RkAKn-1" style="edgeStyle=orthogonalEdgeStyle;rounded=0;orthogonalLoop=1;jettySize=auto;html=1;exitX=0;exitY=0.5;exitDx=0;exitDy=0;exitPerimeter=0;entryX=0.5;entryY=0;entryDx=0;entryDy=0;fontFamily=Times New Roman;" parent="1" source="y14Xe_pb24tuC2A-BZMl-2" target="y14Xe_pb24tuC2A-BZMl-5" edge="1">
          <mxGeometry relative="1" as="geometry" />
        </mxCell>
        <mxCell id="y14Xe_pb24tuC2A-BZMl-2" value="int(Stk[i][3])&amp;lt;=10" style="strokeWidth=2;html=1;shape=mxgraph.flowchart.decision;whiteSpace=wrap;fontFamily=Times New Roman;" parent="1" vertex="1">
          <mxGeometry x="360" y="380" width="100" height="100" as="geometry" />
        </mxCell>
        <mxCell id="y14Xe_pb24tuC2A-BZMl-5" value="PRINT&lt;br&gt;&quot;LOW STOCK LEVEL:&quot;,Stk[i][1],&quot;remaining stock&quot;,Stk[i][3]" style="shape=parallelogram;html=1;strokeWidth=2;perimeter=parallelogramPerimeter;whiteSpace=wrap;rounded=1;arcSize=12;size=0.14285714285714246;fontFamily=Times New Roman;" parent="1" vertex="1">
          <mxGeometry x="120" y="480" width="210" height="80" as="geometry" />
        </mxCell>
        <mxCell id="y14Xe_pb24tuC2A-BZMl-14" style="edgeStyle=orthogonalEdgeStyle;rounded=0;orthogonalLoop=1;jettySize=auto;html=1;exitX=0.5;exitY=1;exitDx=0;exitDy=0;exitPerimeter=0;entryX=0.5;entryY=1;entryDx=0;entryDy=0;fontFamily=Times New Roman;" parent="1" source="y14Xe_pb24tuC2A-BZMl-7" target="y14Xe_pb24tuC2A-BZMl-13" edge="1">
          <mxGeometry relative="1" as="geometry" />
        </mxCell>
        <mxCell id="y14Xe_pb24tuC2A-BZMl-7" value="" style="verticalLabelPosition=bottom;verticalAlign=top;html=1;shape=mxgraph.flowchart.on-page_reference;fontFamily=Times New Roman;" parent="1" vertex="1">
          <mxGeometry x="380" y="660" width="60" height="60" as="geometry" />
        </mxCell>
        <mxCell id="y14Xe_pb24tuC2A-BZMl-8" style="edgeStyle=orthogonalEdgeStyle;rounded=0;orthogonalLoop=1;jettySize=auto;html=1;exitX=1;exitY=0.5;exitDx=0;exitDy=0;exitPerimeter=0;entryX=1;entryY=0.5;entryDx=0;entryDy=0;entryPerimeter=0;fontFamily=Times New Roman;" parent="1" source="y14Xe_pb24tuC2A-BZMl-2" target="y14Xe_pb24tuC2A-BZMl-7" edge="1">
          <mxGeometry relative="1" as="geometry">
            <Array as="points">
              <mxPoint x="570" y="430" />
              <mxPoint x="570" y="690" />
            </Array>
          </mxGeometry>
        </mxCell>
        <mxCell id="y14Xe_pb24tuC2A-BZMl-9" style="edgeStyle=orthogonalEdgeStyle;rounded=0;orthogonalLoop=1;jettySize=auto;html=1;exitX=0.5;exitY=1;exitDx=0;exitDy=0;entryX=0;entryY=0.5;entryDx=0;entryDy=0;entryPerimeter=0;fontFamily=Times New Roman;" parent="1" source="y14Xe_pb24tuC2A-BZMl-5" target="y14Xe_pb24tuC2A-BZMl-7" edge="1">
          <mxGeometry relative="1" as="geometry" />
        </mxCell>
        <mxCell id="y14Xe_pb24tuC2A-BZMl-10" value="True" style="text;html=1;align=center;verticalAlign=middle;resizable=0;points=[];autosize=1;strokeColor=none;fillColor=none;fontFamily=Times New Roman;" parent="1" vertex="1">
          <mxGeometry x="290" y="398" width="50" height="30" as="geometry" />
        </mxCell>
        <mxCell id="y14Xe_pb24tuC2A-BZMl-11" value="False" style="text;html=1;align=center;verticalAlign=middle;resizable=0;points=[];autosize=1;strokeColor=none;fillColor=none;fontFamily=Times New Roman;" parent="1" vertex="1">
          <mxGeometry x="465" y="398" width="50" height="30" as="geometry" />
        </mxCell>
        <mxCell id="y14Xe_pb24tuC2A-BZMl-12" value="True" style="text;html=1;align=center;verticalAlign=middle;resizable=0;points=[];autosize=1;strokeColor=none;fillColor=none;fontFamily=Times New Roman;" parent="1" vertex="1">
          <mxGeometry x="405" y="348" width="50" height="30" as="geometry" />
        </mxCell>
        <mxCell id="y14Xe_pb24tuC2A-BZMl-13" value="i+=1" style="rounded=1;whiteSpace=wrap;html=1;absoluteArcSize=1;arcSize=14;strokeWidth=2;fontFamily=Times New Roman;" parent="1" vertex="1">
          <mxGeometry x="30" y="380" width="100" height="60" as="geometry" />
        </mxCell>
        <mxCell id="y14Xe_pb24tuC2A-BZMl-15" style="edgeStyle=orthogonalEdgeStyle;rounded=0;orthogonalLoop=1;jettySize=auto;html=1;exitX=0.5;exitY=0;exitDx=0;exitDy=0;entryX=0;entryY=0.5;entryDx=0;entryDy=0;entryPerimeter=0;fontFamily=Times New Roman;" parent="1" source="y14Xe_pb24tuC2A-BZMl-13" target="y14Xe_pb24tuC2A-BZMl-1" edge="1">
          <mxGeometry relative="1" as="geometry" />
        </mxCell>
        <mxCell id="y14Xe_pb24tuC2A-BZMl-17" value="False" style="text;html=1;align=center;verticalAlign=middle;resizable=0;points=[];autosize=1;strokeColor=none;fillColor=none;fontFamily=Times New Roman;" parent="1" vertex="1">
          <mxGeometry x="465" y="258" width="50" height="30" as="geometry" />
        </mxCell>
        <mxCell id="y14Xe_pb24tuC2A-BZMl-18" value="PRINT&lt;br&gt;&quot; &quot;" style="shape=parallelogram;html=1;strokeWidth=2;perimeter=parallelogramPerimeter;whiteSpace=wrap;rounded=1;arcSize=12;size=0.23;fontFamily=Times New Roman;" parent="1" vertex="1">
          <mxGeometry x="610" y="460" width="100" height="60" as="geometry" />
        </mxCell>
        <mxCell id="y14Xe_pb24tuC2A-BZMl-20" style="edgeStyle=orthogonalEdgeStyle;rounded=0;orthogonalLoop=1;jettySize=auto;html=1;exitX=0.5;exitY=1;exitDx=0;exitDy=0;entryX=0.5;entryY=0;entryDx=0;entryDy=0;entryPerimeter=0;fontFamily=Times New Roman;" parent="1" source="y14Xe_pb24tuC2A-BZMl-18" target="h2Dj5mvBBgrfihcjLYoL-2" edge="1">
          <mxGeometry relative="1" as="geometry">
            <Array as="points">
              <mxPoint x="660" y="810" />
              <mxPoint x="400" y="810" />
            </Array>
          </mxGeometry>
        </mxCell>
        <mxCell id="DmrWysGrpEpe8S7Bebto-1" value="#stockAlert()" style="text;html=1;align=center;verticalAlign=middle;resizable=0;points=[];autosize=1;strokeColor=none;fillColor=none;fontFamily=Times New Roman;" parent="1" vertex="1">
          <mxGeometry x="5" y="38" width="90" height="30" as="geometry" />
        </mxCell>
      </root>
    </mxGraphModel>
  </diagram>
  <diagram id="dNiOXiLqQFJ1lGeM5gHO" name="isDigit(num)">
    <mxGraphModel dx="1036" dy="606" grid="1" gridSize="10" guides="1" tooltips="1" connect="1" arrows="1" fold="1" page="1" pageScale="1" pageWidth="850" pageHeight="1100" math="0" shadow="0">
      <root>
        <mxCell id="0" />
        <mxCell id="1" parent="0" />
        <mxCell id="bS5VAAWrfr5ess3JEYX9-6" value="END" style="strokeWidth=2;html=1;shape=mxgraph.flowchart.terminator;whiteSpace=wrap;fontFamily=Times New Roman;" parent="1" vertex="1">
          <mxGeometry x="355" y="740" width="100" height="60" as="geometry" />
        </mxCell>
        <mxCell id="bS5VAAWrfr5ess3JEYX9-7" value="" style="edgeStyle=orthogonalEdgeStyle;rounded=0;orthogonalLoop=1;jettySize=auto;html=1;fontFamily=Times New Roman;" parent="1" source="bS5VAAWrfr5ess3JEYX9-8" target="bS5VAAWrfr5ess3JEYX9-10" edge="1">
          <mxGeometry relative="1" as="geometry" />
        </mxCell>
        <mxCell id="bS5VAAWrfr5ess3JEYX9-8" value="START" style="strokeWidth=2;html=1;shape=mxgraph.flowchart.terminator;whiteSpace=wrap;fontFamily=Times New Roman;" parent="1" vertex="1">
          <mxGeometry x="360" y="70" width="100" height="60" as="geometry" />
        </mxCell>
        <mxCell id="bS5VAAWrfr5ess3JEYX9-9" value="" style="edgeStyle=orthogonalEdgeStyle;rounded=0;orthogonalLoop=1;jettySize=auto;html=1;fontFamily=Times New Roman;" parent="1" source="bS5VAAWrfr5ess3JEYX9-10" target="bS5VAAWrfr5ess3JEYX9-12" edge="1">
          <mxGeometry relative="1" as="geometry" />
        </mxCell>
        <mxCell id="bS5VAAWrfr5ess3JEYX9-10" value="status=True" style="rounded=1;whiteSpace=wrap;html=1;absoluteArcSize=1;arcSize=14;strokeWidth=2;fontFamily=Times New Roman;" parent="1" vertex="1">
          <mxGeometry x="360" y="180" width="100" height="50" as="geometry" />
        </mxCell>
        <mxCell id="bS5VAAWrfr5ess3JEYX9-11" style="edgeStyle=orthogonalEdgeStyle;rounded=0;orthogonalLoop=1;jettySize=auto;html=1;exitX=1;exitY=0.5;exitDx=0;exitDy=0;exitPerimeter=0;entryX=0.5;entryY=0;entryDx=0;entryDy=0;fontFamily=Times New Roman;" parent="1" source="bS5VAAWrfr5ess3JEYX9-12" target="bS5VAAWrfr5ess3JEYX9-16" edge="1">
          <mxGeometry relative="1" as="geometry" />
        </mxCell>
        <mxCell id="bS5VAAWrfr5ess3JEYX9-12" value="int(num)" style="strokeWidth=2;html=1;shape=mxgraph.flowchart.decision;whiteSpace=wrap;fontFamily=Times New Roman;" parent="1" vertex="1">
          <mxGeometry x="360" y="270" width="100" height="100" as="geometry" />
        </mxCell>
        <mxCell id="bS5VAAWrfr5ess3JEYX9-13" value="" style="edgeStyle=orthogonalEdgeStyle;rounded=0;orthogonalLoop=1;jettySize=auto;html=1;fontFamily=Times New Roman;" parent="1" source="bS5VAAWrfr5ess3JEYX9-14" target="bS5VAAWrfr5ess3JEYX9-19" edge="1">
          <mxGeometry relative="1" as="geometry" />
        </mxCell>
        <mxCell id="bS5VAAWrfr5ess3JEYX9-14" value="" style="verticalLabelPosition=bottom;verticalAlign=top;html=1;shape=mxgraph.flowchart.on-page_reference;fontFamily=Times New Roman;" parent="1" vertex="1">
          <mxGeometry x="385" y="510" width="40" height="40" as="geometry" />
        </mxCell>
        <mxCell id="bS5VAAWrfr5ess3JEYX9-15" style="edgeStyle=orthogonalEdgeStyle;rounded=0;orthogonalLoop=1;jettySize=auto;html=1;exitX=0;exitY=0.5;exitDx=0;exitDy=0;exitPerimeter=0;entryX=0;entryY=0.5;entryDx=0;entryDy=0;entryPerimeter=0;fontFamily=Times New Roman;" parent="1" source="bS5VAAWrfr5ess3JEYX9-12" target="bS5VAAWrfr5ess3JEYX9-14" edge="1">
          <mxGeometry relative="1" as="geometry">
            <Array as="points">
              <mxPoint x="280" y="320" />
              <mxPoint x="280" y="530" />
            </Array>
          </mxGeometry>
        </mxCell>
        <mxCell id="bS5VAAWrfr5ess3JEYX9-16" value="status=False" style="rounded=1;whiteSpace=wrap;html=1;absoluteArcSize=1;arcSize=14;strokeWidth=2;fontFamily=Times New Roman;" parent="1" vertex="1">
          <mxGeometry x="490" y="390" width="100" height="60" as="geometry" />
        </mxCell>
        <mxCell id="bS5VAAWrfr5ess3JEYX9-17" style="edgeStyle=orthogonalEdgeStyle;rounded=0;orthogonalLoop=1;jettySize=auto;html=1;exitX=0.5;exitY=1;exitDx=0;exitDy=0;entryX=1;entryY=0.5;entryDx=0;entryDy=0;entryPerimeter=0;fontFamily=Times New Roman;" parent="1" source="bS5VAAWrfr5ess3JEYX9-16" target="bS5VAAWrfr5ess3JEYX9-14" edge="1">
          <mxGeometry relative="1" as="geometry" />
        </mxCell>
        <mxCell id="bS5VAAWrfr5ess3JEYX9-18" value="" style="edgeStyle=orthogonalEdgeStyle;rounded=0;orthogonalLoop=1;jettySize=auto;html=1;fontFamily=Times New Roman;" parent="1" source="bS5VAAWrfr5ess3JEYX9-19" target="bS5VAAWrfr5ess3JEYX9-6" edge="1">
          <mxGeometry relative="1" as="geometry" />
        </mxCell>
        <mxCell id="bS5VAAWrfr5ess3JEYX9-19" value="return status" style="rounded=1;whiteSpace=wrap;html=1;absoluteArcSize=1;arcSize=14;strokeWidth=2;fontFamily=Times New Roman;" parent="1" vertex="1">
          <mxGeometry x="355" y="620" width="100" height="60" as="geometry" />
        </mxCell>
        <mxCell id="bS5VAAWrfr5ess3JEYX9-20" value="False" style="text;html=1;align=center;verticalAlign=middle;resizable=0;points=[];autosize=1;strokeColor=none;fillColor=none;fontFamily=Times New Roman;" parent="1" vertex="1">
          <mxGeometry x="465" y="288" width="50" height="30" as="geometry" />
        </mxCell>
        <mxCell id="bS5VAAWrfr5ess3JEYX9-21" value="True" style="text;html=1;align=center;verticalAlign=middle;resizable=0;points=[];autosize=1;strokeColor=none;fillColor=none;fontFamily=Times New Roman;" parent="1" vertex="1">
          <mxGeometry x="295" y="288" width="50" height="30" as="geometry" />
        </mxCell>
        <mxCell id="boCLte_lN45b9IoZ9EYE-1" value="#isDigit(num)" style="text;whiteSpace=wrap;fontFamily=Times New Roman;" parent="1" vertex="1">
          <mxGeometry x="50" y="50" width="100" height="40" as="geometry" />
        </mxCell>
      </root>
    </mxGraphModel>
  </diagram>
  <diagram id="lfTDJ0SSDyQ-Zxim6UmD" name="ModifyStk()">
    <mxGraphModel dx="1036" dy="606" grid="1" gridSize="10" guides="1" tooltips="1" connect="1" arrows="1" fold="1" page="1" pageScale="1" pageWidth="850" pageHeight="1100" math="0" shadow="0">
      <root>
        <mxCell id="0" />
        <mxCell id="1" parent="0" />
        <mxCell id="dF0sMXCcBjvKkgGeHSL_-8" value="" style="edgeStyle=orthogonalEdgeStyle;rounded=0;orthogonalLoop=1;jettySize=auto;html=1;fontFamily=Times New Roman;" parent="1" source="dF0sMXCcBjvKkgGeHSL_-1" target="dF0sMXCcBjvKkgGeHSL_-3" edge="1">
          <mxGeometry relative="1" as="geometry" />
        </mxCell>
        <mxCell id="dF0sMXCcBjvKkgGeHSL_-1" value="START" style="strokeWidth=2;html=1;shape=mxgraph.flowchart.terminator;whiteSpace=wrap;fontFamily=Times New Roman;" parent="1" vertex="1">
          <mxGeometry x="266" y="19" width="100" height="60" as="geometry" />
        </mxCell>
        <mxCell id="dF0sMXCcBjvKkgGeHSL_-3" value="Stk=main.readFile(&quot;assfile&quot;,&quot;r&quot;)&lt;br&gt;loop=True&lt;br&gt;step=1" style="rounded=1;whiteSpace=wrap;html=1;absoluteArcSize=1;arcSize=14;strokeWidth=2;fontFamily=Times New Roman;" parent="1" vertex="1">
          <mxGeometry x="206" y="98" width="220" height="60" as="geometry" />
        </mxCell>
        <mxCell id="dF0sMXCcBjvKkgGeHSL_-10" value="" style="edgeStyle=orthogonalEdgeStyle;rounded=0;orthogonalLoop=1;jettySize=auto;html=1;fontFamily=Times New Roman;" parent="1" source="dF0sMXCcBjvKkgGeHSL_-4" target="dF0sMXCcBjvKkgGeHSL_-5" edge="1">
          <mxGeometry relative="1" as="geometry" />
        </mxCell>
        <mxCell id="roskJNRRGPkaDaUXnkAC-2" style="edgeStyle=orthogonalEdgeStyle;rounded=0;orthogonalLoop=1;jettySize=auto;html=1;exitX=1;exitY=0.5;exitDx=0;exitDy=0;exitPerimeter=0;entryX=0.5;entryY=0;entryDx=0;entryDy=0;fontFamily=Times New Roman;" parent="1" source="dF0sMXCcBjvKkgGeHSL_-4" target="roskJNRRGPkaDaUXnkAC-1" edge="1">
          <mxGeometry relative="1" as="geometry" />
        </mxCell>
        <mxCell id="dF0sMXCcBjvKkgGeHSL_-4" value="loop" style="strokeWidth=2;html=1;shape=mxgraph.flowchart.decision;whiteSpace=wrap;fontFamily=Times New Roman;" parent="1" vertex="1">
          <mxGeometry x="269" y="179" width="100" height="100" as="geometry" />
        </mxCell>
        <mxCell id="dF0sMXCcBjvKkgGeHSL_-60" style="edgeStyle=orthogonalEdgeStyle;rounded=0;orthogonalLoop=1;jettySize=auto;html=1;exitX=0;exitY=0.5;exitDx=0;exitDy=0;exitPerimeter=0;entryX=0.5;entryY=0;entryDx=0;entryDy=0;fontFamily=Times New Roman;" parent="1" source="dF0sMXCcBjvKkgGeHSL_-5" target="dF0sMXCcBjvKkgGeHSL_-6" edge="1">
          <mxGeometry relative="1" as="geometry" />
        </mxCell>
        <mxCell id="dF0sMXCcBjvKkgGeHSL_-5" value="step==1" style="strokeWidth=2;html=1;shape=mxgraph.flowchart.decision;whiteSpace=wrap;fontFamily=Times New Roman;" parent="1" vertex="1">
          <mxGeometry x="269" y="309" width="100" height="100" as="geometry" />
        </mxCell>
        <mxCell id="dF0sMXCcBjvKkgGeHSL_-6" value="INPUT&lt;br&gt;ItemCode" style="shape=parallelogram;html=1;strokeWidth=2;perimeter=parallelogramPerimeter;whiteSpace=wrap;rounded=1;arcSize=12;size=0.23;fontFamily=Times New Roman;" parent="1" vertex="1">
          <mxGeometry x="159" y="394" width="100" height="60" as="geometry" />
        </mxCell>
        <mxCell id="P4jEEdwq811cBXG5kNY0-4" style="edgeStyle=orthogonalEdgeStyle;rounded=0;orthogonalLoop=1;jettySize=auto;html=1;exitX=0;exitY=0.5;exitDx=0;exitDy=0;exitPerimeter=0;entryX=0.5;entryY=0;entryDx=0;entryDy=0;fontFamily=Times New Roman;" parent="1" source="dF0sMXCcBjvKkgGeHSL_-11" target="dF0sMXCcBjvKkgGeHSL_-12" edge="1">
          <mxGeometry relative="1" as="geometry" />
        </mxCell>
        <mxCell id="dF0sMXCcBjvKkgGeHSL_-11" value="ItemCode==&quot;Q&quot;" style="strokeWidth=2;html=1;shape=mxgraph.flowchart.decision;whiteSpace=wrap;fontFamily=Times New Roman;" parent="1" vertex="1">
          <mxGeometry x="160" y="476" width="100" height="100" as="geometry" />
        </mxCell>
        <mxCell id="dF0sMXCcBjvKkgGeHSL_-12" value="loop=False" style="rounded=1;whiteSpace=wrap;html=1;absoluteArcSize=1;arcSize=14;strokeWidth=2;fontFamily=Times New Roman;" parent="1" vertex="1">
          <mxGeometry x="50" y="574" width="100" height="50" as="geometry" />
        </mxCell>
        <mxCell id="dF0sMXCcBjvKkgGeHSL_-19" value="" style="edgeStyle=orthogonalEdgeStyle;rounded=0;orthogonalLoop=1;jettySize=auto;html=1;fontFamily=Times New Roman;" parent="1" source="dF0sMXCcBjvKkgGeHSL_-15" target="dF0sMXCcBjvKkgGeHSL_-18" edge="1">
          <mxGeometry relative="1" as="geometry" />
        </mxCell>
        <mxCell id="5q2GTX73FnAZ17I6hW3B-1" style="edgeStyle=orthogonalEdgeStyle;rounded=0;orthogonalLoop=1;jettySize=auto;html=1;exitX=1;exitY=0.5;exitDx=0;exitDy=0;exitPerimeter=0;fontFamily=Times New Roman;" parent="1" source="dF0sMXCcBjvKkgGeHSL_-15" target="dF0sMXCcBjvKkgGeHSL_-21" edge="1">
          <mxGeometry relative="1" as="geometry" />
        </mxCell>
        <mxCell id="dF0sMXCcBjvKkgGeHSL_-15" value="main.check(ItemCode,Stk)" style="strokeWidth=2;html=1;shape=mxgraph.flowchart.decision;whiteSpace=wrap;fontFamily=Times New Roman;" parent="1" vertex="1">
          <mxGeometry x="307" y="546" width="163" height="84" as="geometry" />
        </mxCell>
        <mxCell id="dF0sMXCcBjvKkgGeHSL_-16" style="edgeStyle=orthogonalEdgeStyle;rounded=0;orthogonalLoop=1;jettySize=auto;html=1;exitX=1;exitY=0.5;exitDx=0;exitDy=0;exitPerimeter=0;entryX=0.5;entryY=0;entryDx=0;entryDy=0;entryPerimeter=0;fontFamily=Times New Roman;" parent="1" source="dF0sMXCcBjvKkgGeHSL_-11" target="dF0sMXCcBjvKkgGeHSL_-15" edge="1">
          <mxGeometry relative="1" as="geometry" />
        </mxCell>
        <mxCell id="dF0sMXCcBjvKkgGeHSL_-17" value="True" style="text;html=1;align=center;verticalAlign=middle;resizable=0;points=[];autosize=1;strokeColor=none;fillColor=none;fontFamily=Times New Roman;" parent="1" vertex="1">
          <mxGeometry x="90" y="494" width="50" height="30" as="geometry" />
        </mxCell>
        <mxCell id="dF0sMXCcBjvKkgGeHSL_-18" value="step+=1" style="rounded=1;whiteSpace=wrap;html=1;absoluteArcSize=1;arcSize=14;strokeWidth=2;fontFamily=Times New Roman;" parent="1" vertex="1">
          <mxGeometry x="202" y="655" width="100" height="50" as="geometry" />
        </mxCell>
        <mxCell id="dF0sMXCcBjvKkgGeHSL_-20" value="True" style="text;html=1;align=center;verticalAlign=middle;resizable=0;points=[];autosize=1;strokeColor=none;fillColor=none;fontFamily=Times New Roman;" parent="1" vertex="1">
          <mxGeometry x="257" y="547" width="50" height="30" as="geometry" />
        </mxCell>
        <mxCell id="dF0sMXCcBjvKkgGeHSL_-21" value="&quot;-&quot;*5,&quot;Item Does Not Exist, Cannot Be Modified&quot;,&quot;-&quot;*5" style="shape=parallelogram;html=1;strokeWidth=2;perimeter=parallelogramPerimeter;whiteSpace=wrap;rounded=1;arcSize=19;size=0.09782608695652173;fontFamily=Times New Roman;" parent="1" vertex="1">
          <mxGeometry x="350" y="650" width="323" height="55" as="geometry" />
        </mxCell>
        <mxCell id="dF0sMXCcBjvKkgGeHSL_-23" value="False" style="text;html=1;align=center;verticalAlign=middle;resizable=0;points=[];autosize=1;strokeColor=none;fillColor=none;fontFamily=Times New Roman;" parent="1" vertex="1">
          <mxGeometry x="470" y="550" width="50" height="30" as="geometry" />
        </mxCell>
        <mxCell id="dF0sMXCcBjvKkgGeHSL_-24" value="False" style="text;html=1;align=center;verticalAlign=middle;resizable=0;points=[];autosize=1;strokeColor=none;fillColor=none;fontFamily=Times New Roman;" parent="1" vertex="1">
          <mxGeometry x="255" y="494" width="50" height="30" as="geometry" />
        </mxCell>
        <mxCell id="dF0sMXCcBjvKkgGeHSL_-25" value="" style="verticalLabelPosition=bottom;verticalAlign=top;html=1;shape=mxgraph.flowchart.on-page_reference;fontFamily=Times New Roman;" parent="1" vertex="1">
          <mxGeometry x="363.5" y="721" width="36.5" height="30" as="geometry" />
        </mxCell>
        <mxCell id="dF0sMXCcBjvKkgGeHSL_-26" style="edgeStyle=orthogonalEdgeStyle;rounded=0;orthogonalLoop=1;jettySize=auto;html=1;exitX=0.5;exitY=1;exitDx=0;exitDy=0;entryX=0;entryY=0.5;entryDx=0;entryDy=0;entryPerimeter=0;fontFamily=Times New Roman;" parent="1" source="dF0sMXCcBjvKkgGeHSL_-18" target="dF0sMXCcBjvKkgGeHSL_-25" edge="1">
          <mxGeometry relative="1" as="geometry" />
        </mxCell>
        <mxCell id="dF0sMXCcBjvKkgGeHSL_-27" style="edgeStyle=orthogonalEdgeStyle;rounded=0;orthogonalLoop=1;jettySize=auto;html=1;exitX=0.5;exitY=1;exitDx=0;exitDy=0;entryX=1;entryY=0.5;entryDx=0;entryDy=0;entryPerimeter=0;fontFamily=Times New Roman;" parent="1" source="dF0sMXCcBjvKkgGeHSL_-21" target="dF0sMXCcBjvKkgGeHSL_-25" edge="1">
          <mxGeometry relative="1" as="geometry" />
        </mxCell>
        <mxCell id="dF0sMXCcBjvKkgGeHSL_-28" value="" style="verticalLabelPosition=bottom;verticalAlign=top;html=1;shape=mxgraph.flowchart.on-page_reference;fontFamily=Times New Roman;" parent="1" vertex="1">
          <mxGeometry x="171" y="756" width="35" height="31" as="geometry" />
        </mxCell>
        <mxCell id="dF0sMXCcBjvKkgGeHSL_-29" style="edgeStyle=orthogonalEdgeStyle;rounded=0;orthogonalLoop=1;jettySize=auto;html=1;exitX=0.5;exitY=1;exitDx=0;exitDy=0;entryX=0;entryY=0.5;entryDx=0;entryDy=0;entryPerimeter=0;fontFamily=Times New Roman;" parent="1" source="dF0sMXCcBjvKkgGeHSL_-12" target="dF0sMXCcBjvKkgGeHSL_-28" edge="1">
          <mxGeometry relative="1" as="geometry" />
        </mxCell>
        <mxCell id="dF0sMXCcBjvKkgGeHSL_-47" value="" style="edgeStyle=orthogonalEdgeStyle;rounded=0;orthogonalLoop=1;jettySize=auto;html=1;fontFamily=Times New Roman;" parent="1" source="dF0sMXCcBjvKkgGeHSL_-35" target="dF0sMXCcBjvKkgGeHSL_-46" edge="1">
          <mxGeometry relative="1" as="geometry" />
        </mxCell>
        <mxCell id="dF0sMXCcBjvKkgGeHSL_-35" value="" style="verticalLabelPosition=bottom;verticalAlign=top;html=1;shape=mxgraph.flowchart.on-page_reference;fontFamily=Times New Roman;" parent="1" vertex="1">
          <mxGeometry x="347" y="799" width="43" height="40" as="geometry" />
        </mxCell>
        <mxCell id="dF0sMXCcBjvKkgGeHSL_-36" style="edgeStyle=orthogonalEdgeStyle;rounded=0;orthogonalLoop=1;jettySize=auto;html=1;exitX=0.5;exitY=1;exitDx=0;exitDy=0;exitPerimeter=0;entryX=0;entryY=0.5;entryDx=0;entryDy=0;entryPerimeter=0;fontFamily=Times New Roman;" parent="1" source="dF0sMXCcBjvKkgGeHSL_-28" target="dF0sMXCcBjvKkgGeHSL_-35" edge="1">
          <mxGeometry relative="1" as="geometry" />
        </mxCell>
        <mxCell id="dF0sMXCcBjvKkgGeHSL_-39" value="True" style="text;html=1;align=center;verticalAlign=middle;resizable=0;points=[];autosize=1;strokeColor=none;fillColor=none;fontFamily=Times New Roman;" parent="1" vertex="1">
          <mxGeometry x="219" y="327" width="50" height="30" as="geometry" />
        </mxCell>
        <mxCell id="dF0sMXCcBjvKkgGeHSL_-40" value="False" style="text;html=1;align=center;verticalAlign=middle;resizable=0;points=[];autosize=1;strokeColor=none;fillColor=none;fontFamily=Times New Roman;" parent="1" vertex="1">
          <mxGeometry x="390" y="327" width="50" height="30" as="geometry" />
        </mxCell>
        <mxCell id="P4jEEdwq811cBXG5kNY0-16" style="edgeStyle=orthogonalEdgeStyle;rounded=0;orthogonalLoop=1;jettySize=auto;html=1;exitX=0;exitY=0.5;exitDx=0;exitDy=0;exitPerimeter=0;entryX=0.5;entryY=0;entryDx=0;entryDy=0;fontFamily=Times New Roman;" parent="1" source="dF0sMXCcBjvKkgGeHSL_-46" target="P4jEEdwq811cBXG5kNY0-11" edge="1">
          <mxGeometry relative="1" as="geometry" />
        </mxCell>
        <mxCell id="P4jEEdwq811cBXG5kNY0-20" style="edgeStyle=orthogonalEdgeStyle;rounded=0;orthogonalLoop=1;jettySize=auto;html=1;exitX=1;exitY=0.5;exitDx=0;exitDy=0;exitPerimeter=0;entryX=1;entryY=0.5;entryDx=0;entryDy=0;fontFamily=Times New Roman;" parent="1" source="dF0sMXCcBjvKkgGeHSL_-46" target="_AZvgFje0ksl0cia7yaE-21" edge="1">
          <mxGeometry relative="1" as="geometry">
            <Array as="points">
              <mxPoint x="490" y="906" />
              <mxPoint x="490" y="1035" />
            </Array>
          </mxGeometry>
        </mxCell>
        <mxCell id="dF0sMXCcBjvKkgGeHSL_-46" value="step==2" style="strokeWidth=2;html=1;shape=mxgraph.flowchart.decision;whiteSpace=wrap;fontFamily=Times New Roman;" parent="1" vertex="1">
          <mxGeometry x="318" y="866" width="100" height="80" as="geometry" />
        </mxCell>
        <mxCell id="dF0sMXCcBjvKkgGeHSL_-62" style="edgeStyle=orthogonalEdgeStyle;rounded=0;orthogonalLoop=1;jettySize=auto;html=1;exitX=0.5;exitY=1;exitDx=0;exitDy=0;entryX=0.5;entryY=0;entryDx=0;entryDy=0;entryPerimeter=0;fontFamily=Times New Roman;" parent="1" source="dF0sMXCcBjvKkgGeHSL_-6" target="dF0sMXCcBjvKkgGeHSL_-11" edge="1">
          <mxGeometry relative="1" as="geometry" />
        </mxCell>
        <mxCell id="bGyMU5yPiwLJDS9nZAel-4" value="True" style="text;html=1;align=center;verticalAlign=middle;resizable=0;points=[];autosize=1;strokeColor=none;fillColor=none;fontFamily=Times New Roman;" parent="1" vertex="1">
          <mxGeometry x="255.5" y="876" width="50" height="30" as="geometry" />
        </mxCell>
        <mxCell id="_AZvgFje0ksl0cia7yaE-21" value="" style="ellipse;whiteSpace=wrap;html=1;fontFamily=Times New Roman;" parent="1" vertex="1">
          <mxGeometry x="361" y="1021" width="29" height="27" as="geometry" />
        </mxCell>
        <mxCell id="_AZvgFje0ksl0cia7yaE-25" value="True" style="text;html=1;align=center;verticalAlign=middle;resizable=0;points=[];autosize=1;strokeColor=none;fillColor=none;fontFamily=Times New Roman;" parent="1" vertex="1">
          <mxGeometry x="314" y="277" width="50" height="30" as="geometry" />
        </mxCell>
        <mxCell id="6Vw5mdwjv73ZqcUToPnh-52" value="" style="edgeStyle=orthogonalEdgeStyle;rounded=0;orthogonalLoop=1;jettySize=auto;html=1;fontFamily=Times New Roman;" parent="1" source="6Vw5mdwjv73ZqcUToPnh-49" target="6Vw5mdwjv73ZqcUToPnh-51" edge="1">
          <mxGeometry relative="1" as="geometry" />
        </mxCell>
        <mxCell id="6Vw5mdwjv73ZqcUToPnh-49" value="return&lt;br&gt;Stk" style="rounded=1;whiteSpace=wrap;html=1;absoluteArcSize=1;arcSize=14;strokeWidth=2;fontFamily=Times New Roman;" parent="1" vertex="1">
          <mxGeometry x="720" y="450" width="60" height="44" as="geometry" />
        </mxCell>
        <mxCell id="6Vw5mdwjv73ZqcUToPnh-51" value="END" style="strokeWidth=2;html=1;shape=mxgraph.flowchart.terminator;whiteSpace=wrap;fontFamily=Times New Roman;" parent="1" vertex="1">
          <mxGeometry x="700" y="564" width="100" height="60" as="geometry" />
        </mxCell>
        <mxCell id="6Vw5mdwjv73ZqcUToPnh-53" value="False" style="text;html=1;align=center;verticalAlign=middle;resizable=0;points=[];autosize=1;strokeColor=none;fillColor=none;fontFamily=Times New Roman;" parent="1" vertex="1">
          <mxGeometry x="374" y="197" width="50" height="30" as="geometry" />
        </mxCell>
        <mxCell id="6Vw5mdwjv73ZqcUToPnh-54" value="False" style="text;html=1;align=center;verticalAlign=middle;resizable=0;points=[];autosize=1;strokeColor=none;fillColor=none;fontFamily=Times New Roman;" parent="1" vertex="1">
          <mxGeometry x="425" y="876" width="50" height="30" as="geometry" />
        </mxCell>
        <mxCell id="P4jEEdwq811cBXG5kNY0-1" style="edgeStyle=orthogonalEdgeStyle;rounded=0;orthogonalLoop=1;jettySize=auto;html=1;exitX=0.5;exitY=1;exitDx=0;exitDy=0;entryX=0.5;entryY=0;entryDx=0;entryDy=0;entryPerimeter=0;fontFamily=Times New Roman;" parent="1" source="dF0sMXCcBjvKkgGeHSL_-3" target="dF0sMXCcBjvKkgGeHSL_-4" edge="1">
          <mxGeometry relative="1" as="geometry" />
        </mxCell>
        <mxCell id="P4jEEdwq811cBXG5kNY0-7" style="edgeStyle=orthogonalEdgeStyle;rounded=0;orthogonalLoop=1;jettySize=auto;html=1;exitX=1;exitY=0.5;exitDx=0;exitDy=0;exitPerimeter=0;entryX=1;entryY=0.5;entryDx=0;entryDy=0;entryPerimeter=0;fontFamily=Times New Roman;" parent="1" source="dF0sMXCcBjvKkgGeHSL_-5" target="dF0sMXCcBjvKkgGeHSL_-35" edge="1">
          <mxGeometry relative="1" as="geometry">
            <Array as="points">
              <mxPoint x="680" y="359" />
              <mxPoint x="680" y="819" />
            </Array>
          </mxGeometry>
        </mxCell>
        <mxCell id="P4jEEdwq811cBXG5kNY0-9" style="edgeStyle=orthogonalEdgeStyle;rounded=0;orthogonalLoop=1;jettySize=auto;html=1;exitX=0.5;exitY=1;exitDx=0;exitDy=0;exitPerimeter=0;entryX=1;entryY=0.5;entryDx=0;entryDy=0;entryPerimeter=0;fontFamily=Times New Roman;" parent="1" source="dF0sMXCcBjvKkgGeHSL_-25" target="dF0sMXCcBjvKkgGeHSL_-28" edge="1">
          <mxGeometry relative="1" as="geometry" />
        </mxCell>
        <mxCell id="P4jEEdwq811cBXG5kNY0-11" value="" style="verticalLabelPosition=bottom;verticalAlign=top;html=1;shape=offPageConnector;rounded=0;size=0.5;fontFamily=Times New Roman;" parent="1" vertex="1">
          <mxGeometry x="179" y="925" width="40" height="40" as="geometry" />
        </mxCell>
        <mxCell id="P4jEEdwq811cBXG5kNY0-19" style="edgeStyle=orthogonalEdgeStyle;rounded=0;orthogonalLoop=1;jettySize=auto;html=1;exitX=0.5;exitY=1;exitDx=0;exitDy=0;entryX=0;entryY=0.5;entryDx=0;entryDy=0;fontFamily=Times New Roman;" parent="1" source="P4jEEdwq811cBXG5kNY0-12" target="_AZvgFje0ksl0cia7yaE-21" edge="1">
          <mxGeometry relative="1" as="geometry" />
        </mxCell>
        <mxCell id="P4jEEdwq811cBXG5kNY0-12" value="" style="verticalLabelPosition=bottom;verticalAlign=top;html=1;shape=offPageConnector;rounded=0;size=0.5;fontFamily=Times New Roman;" parent="1" vertex="1">
          <mxGeometry x="179" y="975" width="40" height="40" as="geometry" />
        </mxCell>
        <mxCell id="P4jEEdwq811cBXG5kNY0-13" value="1" style="text;html=1;align=center;verticalAlign=middle;resizable=0;points=[];autosize=1;strokeColor=none;fillColor=none;fontFamily=Times New Roman;" parent="1" vertex="1">
          <mxGeometry x="184" y="925" width="30" height="30" as="geometry" />
        </mxCell>
        <mxCell id="P4jEEdwq811cBXG5kNY0-14" value="2" style="text;html=1;align=center;verticalAlign=middle;resizable=0;points=[];autosize=1;strokeColor=none;fillColor=none;fontFamily=Times New Roman;" parent="1" vertex="1">
          <mxGeometry x="184" y="975" width="30" height="30" as="geometry" />
        </mxCell>
        <mxCell id="P4jEEdwq811cBXG5kNY0-21" style="edgeStyle=orthogonalEdgeStyle;rounded=0;orthogonalLoop=1;jettySize=auto;html=1;exitX=0.5;exitY=1;exitDx=0;exitDy=0;entryX=0;entryY=0.5;entryDx=0;entryDy=0;entryPerimeter=0;fontFamily=Times New Roman;" parent="1" source="_AZvgFje0ksl0cia7yaE-21" target="dF0sMXCcBjvKkgGeHSL_-4" edge="1">
          <mxGeometry relative="1" as="geometry">
            <Array as="points">
              <mxPoint x="376" y="1068" />
              <mxPoint x="30" y="1068" />
              <mxPoint x="30" y="229" />
            </Array>
          </mxGeometry>
        </mxCell>
        <mxCell id="Olemn6BPt2VTuTPSjAcL-1" value="#ModifyStk()" style="text;whiteSpace=wrap;fontFamily=Times New Roman;" parent="1" vertex="1">
          <mxGeometry x="60" y="50" width="90" height="40" as="geometry" />
        </mxCell>
        <mxCell id="roskJNRRGPkaDaUXnkAC-3" style="edgeStyle=orthogonalEdgeStyle;rounded=0;orthogonalLoop=1;jettySize=auto;html=1;exitX=0.5;exitY=1;exitDx=0;exitDy=0;entryX=0.5;entryY=0;entryDx=0;entryDy=0;fontFamily=Times New Roman;" parent="1" source="roskJNRRGPkaDaUXnkAC-1" target="6Vw5mdwjv73ZqcUToPnh-49" edge="1">
          <mxGeometry relative="1" as="geometry" />
        </mxCell>
        <mxCell id="roskJNRRGPkaDaUXnkAC-1" value="main.SaveFile(&quot;assfile&quot;,&quot;w&quot;,Stk)" style="rounded=1;whiteSpace=wrap;html=1;absoluteArcSize=1;arcSize=14;strokeWidth=2;fontFamily=Times New Roman;" parent="1" vertex="1">
          <mxGeometry x="660" y="257" width="180" height="43" as="geometry" />
        </mxCell>
      </root>
    </mxGraphModel>
  </diagram>
  <diagram name="ModifyStk() 1-2" id="4Zc3vH1I16S4zuQhHk9H">
    <mxGraphModel dx="1036" dy="606" grid="1" gridSize="10" guides="1" tooltips="1" connect="1" arrows="1" fold="1" page="1" pageScale="1" pageWidth="850" pageHeight="1100" math="0" shadow="0">
      <root>
        <mxCell id="O-Qb_tN_AYHXj3IjruNI-0" />
        <mxCell id="O-Qb_tN_AYHXj3IjruNI-1" parent="O-Qb_tN_AYHXj3IjruNI-0" />
        <mxCell id="iSkrXUF9glxgnJot4W2q-0" value="" style="edgeStyle=orthogonalEdgeStyle;rounded=0;orthogonalLoop=1;jettySize=auto;html=1;fontFamily=Times New Roman;" parent="O-Qb_tN_AYHXj3IjruNI-1" source="iSkrXUF9glxgnJot4W2q-1" target="iSkrXUF9glxgnJot4W2q-3" edge="1">
          <mxGeometry relative="1" as="geometry" />
        </mxCell>
        <mxCell id="iSkrXUF9glxgnJot4W2q-1" value="INPUT&lt;br&gt;modifyWhat" style="shape=parallelogram;html=1;strokeWidth=2;perimeter=parallelogramPerimeter;whiteSpace=wrap;rounded=1;arcSize=12;size=0.23;fontFamily=Times New Roman;" parent="O-Qb_tN_AYHXj3IjruNI-1" vertex="1">
          <mxGeometry x="155" y="113" width="115" height="60" as="geometry" />
        </mxCell>
        <mxCell id="iSkrXUF9glxgnJot4W2q-2" style="edgeStyle=orthogonalEdgeStyle;rounded=0;orthogonalLoop=1;jettySize=auto;html=1;exitX=0;exitY=0.5;exitDx=0;exitDy=0;exitPerimeter=0;entryX=0.5;entryY=0;entryDx=0;entryDy=0;fontFamily=Times New Roman;" parent="O-Qb_tN_AYHXj3IjruNI-1" source="iSkrXUF9glxgnJot4W2q-3" target="iSkrXUF9glxgnJot4W2q-5" edge="1">
          <mxGeometry relative="1" as="geometry" />
        </mxCell>
        <mxCell id="9iyoQ-wqq6x5LqwUjYN1-1" style="edgeStyle=orthogonalEdgeStyle;rounded=0;orthogonalLoop=1;jettySize=auto;html=1;exitX=1;exitY=0.5;exitDx=0;exitDy=0;exitPerimeter=0;fontFamily=Times New Roman;" parent="O-Qb_tN_AYHXj3IjruNI-1" source="iSkrXUF9glxgnJot4W2q-3" target="iSkrXUF9glxgnJot4W2q-11" edge="1">
          <mxGeometry relative="1" as="geometry" />
        </mxCell>
        <mxCell id="iSkrXUF9glxgnJot4W2q-3" value="modifyWhat==&quot;Q&quot;" style="strokeWidth=2;html=1;shape=mxgraph.flowchart.decision;whiteSpace=wrap;fontFamily=Times New Roman;" parent="O-Qb_tN_AYHXj3IjruNI-1" vertex="1">
          <mxGeometry x="154.5" y="204.25" width="115" height="80" as="geometry" />
        </mxCell>
        <mxCell id="F9t-X6j0tJvueX48hI3v-2" style="edgeStyle=orthogonalEdgeStyle;rounded=0;orthogonalLoop=1;jettySize=auto;html=1;exitX=0.5;exitY=1;exitDx=0;exitDy=0;entryX=0;entryY=0.5;entryDx=0;entryDy=0;fontFamily=Times New Roman;" parent="O-Qb_tN_AYHXj3IjruNI-1" source="iSkrXUF9glxgnJot4W2q-5" target="iSkrXUF9glxgnJot4W2q-49" edge="1">
          <mxGeometry relative="1" as="geometry" />
        </mxCell>
        <mxCell id="iSkrXUF9glxgnJot4W2q-5" value="loop=False" style="rounded=1;whiteSpace=wrap;html=1;absoluteArcSize=1;arcSize=14;strokeWidth=2;fontFamily=Times New Roman;" parent="O-Qb_tN_AYHXj3IjruNI-1" vertex="1">
          <mxGeometry x="57" y="300.5" width="100" height="50" as="geometry" />
        </mxCell>
        <mxCell id="iSkrXUF9glxgnJot4W2q-6" value="True" style="text;html=1;align=center;verticalAlign=middle;resizable=0;points=[];autosize=1;strokeColor=none;fillColor=none;fontFamily=Times New Roman;" parent="O-Qb_tN_AYHXj3IjruNI-1" vertex="1">
          <mxGeometry x="107" y="211" width="50" height="30" as="geometry" />
        </mxCell>
        <mxCell id="iSkrXUF9glxgnJot4W2q-7" value="False" style="text;html=1;align=center;verticalAlign=middle;resizable=0;points=[];autosize=1;strokeColor=none;fillColor=none;fontFamily=Times New Roman;" parent="O-Qb_tN_AYHXj3IjruNI-1" vertex="1">
          <mxGeometry x="260" y="209" width="50" height="30" as="geometry" />
        </mxCell>
        <mxCell id="9iyoQ-wqq6x5LqwUjYN1-0" style="edgeStyle=orthogonalEdgeStyle;rounded=0;orthogonalLoop=1;jettySize=auto;html=1;exitX=1;exitY=0.5;exitDx=0;exitDy=0;exitPerimeter=0;fontFamily=Times New Roman;" parent="O-Qb_tN_AYHXj3IjruNI-1" source="iSkrXUF9glxgnJot4W2q-11" target="iSkrXUF9glxgnJot4W2q-40" edge="1">
          <mxGeometry relative="1" as="geometry" />
        </mxCell>
        <mxCell id="iSkrXUF9glxgnJot4W2q-11" value="modifyWhat==&quot;S&quot;" style="strokeWidth=2;html=1;shape=mxgraph.flowchart.decision;whiteSpace=wrap;fontFamily=Times New Roman;" parent="O-Qb_tN_AYHXj3IjruNI-1" vertex="1">
          <mxGeometry x="311" y="314.75" width="110" height="82.5" as="geometry" />
        </mxCell>
        <mxCell id="iSkrXUF9glxgnJot4W2q-25" style="edgeStyle=orthogonalEdgeStyle;rounded=0;orthogonalLoop=1;jettySize=auto;html=1;exitX=0.5;exitY=1;exitDx=0;exitDy=0;entryX=0.5;entryY=0;entryDx=0;entryDy=0;fontFamily=Times New Roman;" parent="O-Qb_tN_AYHXj3IjruNI-1" source="iSkrXUF9glxgnJot4W2q-26" target="iSkrXUF9glxgnJot4W2q-27" edge="1">
          <mxGeometry relative="1" as="geometry" />
        </mxCell>
        <mxCell id="iSkrXUF9glxgnJot4W2q-26" value="INPUT&lt;br&gt;NewStock" style="shape=parallelogram;html=1;strokeWidth=2;perimeter=parallelogramPerimeter;whiteSpace=wrap;rounded=1;arcSize=12;size=0.23;fontFamily=Times New Roman;" parent="O-Qb_tN_AYHXj3IjruNI-1" vertex="1">
          <mxGeometry x="175" y="402.3800000000001" width="100" height="60" as="geometry" />
        </mxCell>
        <mxCell id="iSkrXUF9glxgnJot4W2q-27" value="" style="verticalLabelPosition=bottom;verticalAlign=top;html=1;shape=offPageConnector;rounded=0;size=0.5;fontFamily=Times New Roman;" parent="O-Qb_tN_AYHXj3IjruNI-1" vertex="1">
          <mxGeometry x="195" y="492.1300000000001" width="60" height="60" as="geometry" />
        </mxCell>
        <mxCell id="iSkrXUF9glxgnJot4W2q-28" value="3" style="text;strokeColor=none;align=center;fillColor=none;html=1;verticalAlign=middle;whiteSpace=wrap;rounded=0;fontFamily=Times New Roman;" parent="O-Qb_tN_AYHXj3IjruNI-1" vertex="1">
          <mxGeometry x="195" y="495.8800000000001" width="60" height="30" as="geometry" />
        </mxCell>
        <mxCell id="iSkrXUF9glxgnJot4W2q-29" style="edgeStyle=orthogonalEdgeStyle;rounded=0;orthogonalLoop=1;jettySize=auto;html=1;exitX=0.5;exitY=1;exitDx=0;exitDy=0;entryX=0;entryY=0.5;entryDx=0;entryDy=0;fontFamily=Times New Roman;" parent="O-Qb_tN_AYHXj3IjruNI-1" source="iSkrXUF9glxgnJot4W2q-30" target="iSkrXUF9glxgnJot4W2q-46" edge="1">
          <mxGeometry relative="1" as="geometry" />
        </mxCell>
        <mxCell id="iSkrXUF9glxgnJot4W2q-30" value="" style="verticalLabelPosition=bottom;verticalAlign=top;html=1;shape=offPageConnector;rounded=0;size=0.5;fontFamily=Times New Roman;" parent="O-Qb_tN_AYHXj3IjruNI-1" vertex="1">
          <mxGeometry x="195" y="562.1300000000001" width="60" height="60" as="geometry" />
        </mxCell>
        <mxCell id="iSkrXUF9glxgnJot4W2q-31" value="4" style="text;strokeColor=none;align=center;fillColor=none;html=1;verticalAlign=middle;whiteSpace=wrap;rounded=0;fontFamily=Times New Roman;" parent="O-Qb_tN_AYHXj3IjruNI-1" vertex="1">
          <mxGeometry x="195" y="563.6300000000001" width="60" height="30" as="geometry" />
        </mxCell>
        <mxCell id="iSkrXUF9glxgnJot4W2q-39" value="" style="edgeStyle=orthogonalEdgeStyle;rounded=0;orthogonalLoop=1;jettySize=auto;html=1;fontFamily=Times New Roman;" parent="O-Qb_tN_AYHXj3IjruNI-1" source="iSkrXUF9glxgnJot4W2q-40" target="iSkrXUF9glxgnJot4W2q-42" edge="1">
          <mxGeometry relative="1" as="geometry" />
        </mxCell>
        <mxCell id="iSkrXUF9glxgnJot4W2q-40" value="PRINT&lt;br&gt;&quot;-&quot;*9,&quot;Invalid Option, Pls Try Again&quot;,&quot;-&quot;*10" style="shape=parallelogram;html=1;strokeWidth=2;perimeter=parallelogramPerimeter;whiteSpace=wrap;rounded=1;arcSize=12;size=0.11249999999999999;fontFamily=Times New Roman;" parent="O-Qb_tN_AYHXj3IjruNI-1" vertex="1">
          <mxGeometry x="384" y="418.0000000000002" width="258" height="62.12" as="geometry" />
        </mxCell>
        <mxCell id="iSkrXUF9glxgnJot4W2q-41" style="edgeStyle=orthogonalEdgeStyle;rounded=0;orthogonalLoop=1;jettySize=auto;html=1;exitX=0.5;exitY=1;exitDx=0;exitDy=0;entryX=1;entryY=0.5;entryDx=0;entryDy=0;fontFamily=Times New Roman;" parent="O-Qb_tN_AYHXj3IjruNI-1" source="iSkrXUF9glxgnJot4W2q-42" target="iSkrXUF9glxgnJot4W2q-46" edge="1">
          <mxGeometry relative="1" as="geometry">
            <mxPoint x="530" y="752.25" as="targetPoint" />
          </mxGeometry>
        </mxCell>
        <mxCell id="iSkrXUF9glxgnJot4W2q-42" value="INPUT&lt;br&gt;()" style="shape=parallelogram;html=1;strokeWidth=2;perimeter=parallelogramPerimeter;whiteSpace=wrap;rounded=1;arcSize=12;size=0.23;fontFamily=Times New Roman;" parent="O-Qb_tN_AYHXj3IjruNI-1" vertex="1">
          <mxGeometry x="463" y="518.0000000000001" width="100" height="60" as="geometry" />
        </mxCell>
        <mxCell id="F9t-X6j0tJvueX48hI3v-1" style="edgeStyle=orthogonalEdgeStyle;rounded=0;orthogonalLoop=1;jettySize=auto;html=1;exitX=0.5;exitY=1;exitDx=0;exitDy=0;entryX=1;entryY=0.5;entryDx=0;entryDy=0;fontFamily=Times New Roman;" parent="O-Qb_tN_AYHXj3IjruNI-1" source="iSkrXUF9glxgnJot4W2q-46" target="iSkrXUF9glxgnJot4W2q-49" edge="1">
          <mxGeometry relative="1" as="geometry" />
        </mxCell>
        <mxCell id="iSkrXUF9glxgnJot4W2q-46" value="" style="ellipse;whiteSpace=wrap;html=1;fontFamily=Times New Roman;" parent="O-Qb_tN_AYHXj3IjruNI-1" vertex="1">
          <mxGeometry x="255" y="647" width="59" height="58" as="geometry" />
        </mxCell>
        <mxCell id="iSkrXUF9glxgnJot4W2q-60" style="edgeStyle=orthogonalEdgeStyle;rounded=0;orthogonalLoop=1;jettySize=auto;html=1;exitX=0.5;exitY=1;exitDx=0;exitDy=0;entryX=0.5;entryY=0;entryDx=0;entryDy=0;fontFamily=Times New Roman;" parent="O-Qb_tN_AYHXj3IjruNI-1" source="iSkrXUF9glxgnJot4W2q-49" target="iSkrXUF9glxgnJot4W2q-58" edge="1">
          <mxGeometry relative="1" as="geometry" />
        </mxCell>
        <mxCell id="iSkrXUF9glxgnJot4W2q-49" value="" style="ellipse;whiteSpace=wrap;html=1;fontFamily=Times New Roman;" parent="O-Qb_tN_AYHXj3IjruNI-1" vertex="1">
          <mxGeometry x="143" y="749.5" width="53.5" height="50" as="geometry" />
        </mxCell>
        <mxCell id="iSkrXUF9glxgnJot4W2q-50" value="True" style="text;strokeColor=none;align=center;fillColor=none;html=1;verticalAlign=middle;whiteSpace=wrap;rounded=0;fontFamily=Times New Roman;" parent="O-Qb_tN_AYHXj3IjruNI-1" vertex="1">
          <mxGeometry x="257" y="329.75" width="60" height="30" as="geometry" />
        </mxCell>
        <mxCell id="iSkrXUF9glxgnJot4W2q-51" value="False" style="text;strokeColor=none;align=center;fillColor=none;html=1;verticalAlign=middle;whiteSpace=wrap;rounded=0;fontFamily=Times New Roman;" parent="O-Qb_tN_AYHXj3IjruNI-1" vertex="1">
          <mxGeometry x="421" y="329.75" width="60" height="30" as="geometry" />
        </mxCell>
        <mxCell id="iSkrXUF9glxgnJot4W2q-56" value="" style="verticalLabelPosition=bottom;verticalAlign=top;html=1;shape=offPageConnector;rounded=0;size=0.5;fontFamily=Times New Roman;" parent="O-Qb_tN_AYHXj3IjruNI-1" vertex="1">
          <mxGeometry x="136.5" y="822" width="60" height="60" as="geometry" />
        </mxCell>
        <mxCell id="iSkrXUF9glxgnJot4W2q-57" value="" style="verticalLabelPosition=bottom;verticalAlign=top;html=1;shape=offPageConnector;rounded=0;size=0.5;fontFamily=Times New Roman;" parent="O-Qb_tN_AYHXj3IjruNI-1" vertex="1">
          <mxGeometry x="194.5" y="30" width="60" height="60" as="geometry" />
        </mxCell>
        <mxCell id="iSkrXUF9glxgnJot4W2q-58" value="2" style="text;strokeColor=none;align=center;fillColor=none;html=1;verticalAlign=middle;whiteSpace=wrap;rounded=0;fontFamily=Times New Roman;" parent="O-Qb_tN_AYHXj3IjruNI-1" vertex="1">
          <mxGeometry x="136.5" y="822" width="60" height="30" as="geometry" />
        </mxCell>
        <mxCell id="iSkrXUF9glxgnJot4W2q-61" value="1" style="text;html=1;align=center;verticalAlign=middle;resizable=0;points=[];autosize=1;strokeColor=none;fillColor=none;fontFamily=Times New Roman;" parent="O-Qb_tN_AYHXj3IjruNI-1" vertex="1">
          <mxGeometry x="208" y="30" width="30" height="30" as="geometry" />
        </mxCell>
        <mxCell id="iSkrXUF9glxgnJot4W2q-64" style="edgeStyle=orthogonalEdgeStyle;rounded=0;orthogonalLoop=1;jettySize=auto;html=1;exitX=0.5;exitY=1;exitDx=0;exitDy=0;entryX=0.607;entryY=0.047;entryDx=0;entryDy=0;entryPerimeter=0;fontFamily=Times New Roman;" parent="O-Qb_tN_AYHXj3IjruNI-1" source="iSkrXUF9glxgnJot4W2q-57" target="iSkrXUF9glxgnJot4W2q-1" edge="1">
          <mxGeometry relative="1" as="geometry" />
        </mxCell>
        <mxCell id="iSkrXUF9glxgnJot4W2q-65" value="#ModifyStk() 1-2" style="text;html=1;align=center;verticalAlign=middle;resizable=0;points=[];autosize=1;strokeColor=none;fillColor=none;fontFamily=Times New Roman;" parent="O-Qb_tN_AYHXj3IjruNI-1" vertex="1">
          <mxGeometry x="15" y="18" width="110" height="30" as="geometry" />
        </mxCell>
        <mxCell id="F9t-X6j0tJvueX48hI3v-0" style="edgeStyle=orthogonalEdgeStyle;rounded=0;orthogonalLoop=1;jettySize=auto;html=1;exitX=1;exitY=1;exitDx=0;exitDy=0;entryX=0.63;entryY=-0.008;entryDx=0;entryDy=0;entryPerimeter=0;fontFamily=Times New Roman;" parent="O-Qb_tN_AYHXj3IjruNI-1" source="iSkrXUF9glxgnJot4W2q-50" target="iSkrXUF9glxgnJot4W2q-26" edge="1">
          <mxGeometry relative="1" as="geometry">
            <Array as="points">
              <mxPoint x="317" y="358" />
              <mxPoint x="238" y="358" />
            </Array>
          </mxGeometry>
        </mxCell>
      </root>
    </mxGraphModel>
  </diagram>
  <diagram id="kuCF3LdlHmKa3r5k_jKb" name="ModifyStk() 3-4">
    <mxGraphModel dx="186" dy="-1594" grid="1" gridSize="10" guides="1" tooltips="1" connect="1" arrows="1" fold="1" page="1" pageScale="1" pageWidth="850" pageHeight="1100" math="0" shadow="0">
      <root>
        <mxCell id="0" />
        <mxCell id="1" parent="0" />
        <mxCell id="CvnI1XxXwCHe2HnbIkli-1" value="" style="verticalLabelPosition=bottom;verticalAlign=top;html=1;shape=offPageConnector;rounded=0;size=0.5;fontFamily=Times New Roman;" parent="1" vertex="1">
          <mxGeometry x="1033" y="3194" width="60" height="60" as="geometry" />
        </mxCell>
        <mxCell id="CvnI1XxXwCHe2HnbIkli-2" value="" style="verticalLabelPosition=bottom;verticalAlign=top;html=1;shape=offPageConnector;rounded=0;size=0.5;fontFamily=Times New Roman;" parent="1" vertex="1">
          <mxGeometry x="1097" y="2209" width="60" height="60" as="geometry" />
        </mxCell>
        <mxCell id="CvnI1XxXwCHe2HnbIkli-3" value="3" style="text;strokeColor=none;align=center;fillColor=none;html=1;verticalAlign=middle;whiteSpace=wrap;rounded=0;fontFamily=Times New Roman;" parent="1" vertex="1">
          <mxGeometry x="1097" y="2209" width="60" height="30" as="geometry" />
        </mxCell>
        <mxCell id="CvnI1XxXwCHe2HnbIkli-4" style="edgeStyle=orthogonalEdgeStyle;rounded=0;orthogonalLoop=1;jettySize=auto;html=1;exitX=0;exitY=0.5;exitDx=0;exitDy=0;exitPerimeter=0;entryX=0.5;entryY=0;entryDx=0;entryDy=0;fontFamily=Times New Roman;" parent="1" source="CvnI1XxXwCHe2HnbIkli-6" target="CvnI1XxXwCHe2HnbIkli-7" edge="1">
          <mxGeometry relative="1" as="geometry" />
        </mxCell>
        <mxCell id="CvnI1XxXwCHe2HnbIkli-5" style="edgeStyle=orthogonalEdgeStyle;rounded=0;orthogonalLoop=1;jettySize=auto;html=1;exitX=1;exitY=0.5;exitDx=0;exitDy=0;exitPerimeter=0;fontFamily=Times New Roman;" parent="1" source="CvnI1XxXwCHe2HnbIkli-6" target="CvnI1XxXwCHe2HnbIkli-10" edge="1">
          <mxGeometry relative="1" as="geometry" />
        </mxCell>
        <mxCell id="CvnI1XxXwCHe2HnbIkli-6" value="NewStock==&quot;Q&quot;" style="strokeWidth=2;html=1;shape=mxgraph.flowchart.decision;whiteSpace=wrap;fontFamily=Times New Roman;" parent="1" vertex="1">
          <mxGeometry x="1067" y="2299" width="120" height="80" as="geometry" />
        </mxCell>
        <mxCell id="CvnI1XxXwCHe2HnbIkli-7" value="loop=False" style="rounded=1;whiteSpace=wrap;html=1;absoluteArcSize=1;arcSize=14;strokeWidth=2;fontFamily=Times New Roman;" parent="1" vertex="1">
          <mxGeometry x="887" y="2384" width="100" height="50" as="geometry" />
        </mxCell>
        <mxCell id="CvnI1XxXwCHe2HnbIkli-8" style="edgeStyle=orthogonalEdgeStyle;rounded=0;orthogonalLoop=1;jettySize=auto;html=1;exitX=0;exitY=0.5;exitDx=0;exitDy=0;exitPerimeter=0;fontFamily=Times New Roman;" parent="1" source="CvnI1XxXwCHe2HnbIkli-10" target="CvnI1XxXwCHe2HnbIkli-13" edge="1">
          <mxGeometry relative="1" as="geometry" />
        </mxCell>
        <mxCell id="CvnI1XxXwCHe2HnbIkli-9" style="edgeStyle=orthogonalEdgeStyle;rounded=0;orthogonalLoop=1;jettySize=auto;html=1;exitX=1;exitY=0.5;exitDx=0;exitDy=0;exitPerimeter=0;entryX=0.5;entryY=0;entryDx=0;entryDy=0;fontFamily=Times New Roman;" parent="1" source="CvnI1XxXwCHe2HnbIkli-10" target="CvnI1XxXwCHe2HnbIkli-15" edge="1">
          <mxGeometry relative="1" as="geometry" />
        </mxCell>
        <mxCell id="CvnI1XxXwCHe2HnbIkli-10" value="not main.isDigit(NewStock)" style="strokeWidth=2;html=1;shape=mxgraph.flowchart.decision;whiteSpace=wrap;fontFamily=Times New Roman;" parent="1" vertex="1">
          <mxGeometry x="1247" y="2383" width="180" height="105" as="geometry" />
        </mxCell>
        <mxCell id="CvnI1XxXwCHe2HnbIkli-11" style="edgeStyle=orthogonalEdgeStyle;rounded=0;orthogonalLoop=1;jettySize=auto;html=1;exitX=0.5;exitY=1;exitDx=0;exitDy=0;entryX=0.5;entryY=0;entryDx=0;entryDy=0;entryPerimeter=0;fontFamily=Times New Roman;" parent="1" source="CvnI1XxXwCHe2HnbIkli-2" target="CvnI1XxXwCHe2HnbIkli-6" edge="1">
          <mxGeometry relative="1" as="geometry" />
        </mxCell>
        <mxCell id="CvnI1XxXwCHe2HnbIkli-12" style="edgeStyle=orthogonalEdgeStyle;rounded=0;orthogonalLoop=1;jettySize=auto;html=1;exitX=0.5;exitY=1;exitDx=0;exitDy=0;entryX=0;entryY=0.5;entryDx=0;entryDy=0;fontFamily=Times New Roman;" parent="1" source="CvnI1XxXwCHe2HnbIkli-13" target="CvnI1XxXwCHe2HnbIkli-35" edge="1">
          <mxGeometry relative="1" as="geometry" />
        </mxCell>
        <mxCell id="CvnI1XxXwCHe2HnbIkli-13" value="PRINT&lt;br&gt;&quot;-&quot;*5,&quot;Please Input Integer Quantity of Stock&quot;,&quot;-&quot;*5" style="shape=parallelogram;html=1;strokeWidth=2;perimeter=parallelogramPerimeter;whiteSpace=wrap;rounded=1;arcSize=12;size=0.06818181818181818;fontFamily=Times New Roman;" parent="1" vertex="1">
          <mxGeometry x="1037" y="2481" width="230" height="72" as="geometry" />
        </mxCell>
        <mxCell id="CvnI1XxXwCHe2HnbIkli-14" value="" style="edgeStyle=orthogonalEdgeStyle;rounded=0;orthogonalLoop=1;jettySize=auto;html=1;fontFamily=Times New Roman;" parent="1" source="CvnI1XxXwCHe2HnbIkli-15" target="CvnI1XxXwCHe2HnbIkli-18" edge="1">
          <mxGeometry relative="1" as="geometry" />
        </mxCell>
        <mxCell id="CvnI1XxXwCHe2HnbIkli-15" value="search=ItemCode&lt;br&gt;sublist=0" style="rounded=1;whiteSpace=wrap;html=1;absoluteArcSize=1;arcSize=14;strokeWidth=2;fontFamily=Times New Roman;" parent="1" vertex="1">
          <mxGeometry x="1453.56" y="2481" width="120" height="55" as="geometry" />
        </mxCell>
        <mxCell id="CvnI1XxXwCHe2HnbIkli-16" value="" style="edgeStyle=orthogonalEdgeStyle;rounded=0;orthogonalLoop=1;jettySize=auto;html=1;fontFamily=Times New Roman;" parent="1" source="CvnI1XxXwCHe2HnbIkli-18" target="CvnI1XxXwCHe2HnbIkli-21" edge="1">
          <mxGeometry relative="1" as="geometry" />
        </mxCell>
        <mxCell id="EnpWEPmTZlhx_5COm1D5-2" style="edgeStyle=orthogonalEdgeStyle;rounded=0;orthogonalLoop=1;jettySize=auto;html=1;exitX=1;exitY=0.5;exitDx=0;exitDy=0;exitPerimeter=0;fontFamily=Times New Roman;" parent="1" source="CvnI1XxXwCHe2HnbIkli-18" target="CvnI1XxXwCHe2HnbIkli-37" edge="1">
          <mxGeometry relative="1" as="geometry" />
        </mxCell>
        <mxCell id="CvnI1XxXwCHe2HnbIkli-18" value="sublist &amp;lt;len(Stk)" style="strokeWidth=2;html=1;shape=mxgraph.flowchart.decision;whiteSpace=wrap;fontFamily=Times New Roman;" parent="1" vertex="1">
          <mxGeometry x="1463.56" y="2563.5" width="100" height="100" as="geometry" />
        </mxCell>
        <mxCell id="CvnI1XxXwCHe2HnbIkli-19" style="edgeStyle=orthogonalEdgeStyle;rounded=0;orthogonalLoop=1;jettySize=auto;html=1;exitX=0;exitY=0.5;exitDx=0;exitDy=0;exitPerimeter=0;fontFamily=Times New Roman;" parent="1" source="CvnI1XxXwCHe2HnbIkli-21" target="CvnI1XxXwCHe2HnbIkli-23" edge="1">
          <mxGeometry relative="1" as="geometry" />
        </mxCell>
        <mxCell id="EnpWEPmTZlhx_5COm1D5-5" style="edgeStyle=orthogonalEdgeStyle;rounded=0;orthogonalLoop=1;jettySize=auto;html=1;exitX=1;exitY=0.5;exitDx=0;exitDy=0;exitPerimeter=0;entryX=1;entryY=0.5;entryDx=0;entryDy=0;fontFamily=Times New Roman;" parent="1" source="CvnI1XxXwCHe2HnbIkli-21" target="CvnI1XxXwCHe2HnbIkli-26" edge="1">
          <mxGeometry relative="1" as="geometry" />
        </mxCell>
        <mxCell id="CvnI1XxXwCHe2HnbIkli-21" value="ItemCode in Stk[sublist]" style="strokeWidth=2;html=1;shape=mxgraph.flowchart.decision;whiteSpace=wrap;fontFamily=Times New Roman;" parent="1" vertex="1">
          <mxGeometry x="1461.06" y="2693" width="105" height="110" as="geometry" />
        </mxCell>
        <mxCell id="CvnI1XxXwCHe2HnbIkli-22" style="edgeStyle=orthogonalEdgeStyle;rounded=0;orthogonalLoop=1;jettySize=auto;html=1;exitX=0.5;exitY=1;exitDx=0;exitDy=0;entryX=0;entryY=0.5;entryDx=0;entryDy=0;fontFamily=Times New Roman;" parent="1" source="CvnI1XxXwCHe2HnbIkli-23" target="CvnI1XxXwCHe2HnbIkli-26" edge="1">
          <mxGeometry relative="1" as="geometry" />
        </mxCell>
        <mxCell id="CvnI1XxXwCHe2HnbIkli-23" value="position=Stk.index(Stk[sublist])&lt;br&gt;Stk[position][3]=NewStock" style="rounded=1;whiteSpace=wrap;html=1;absoluteArcSize=1;arcSize=14;strokeWidth=2;fontFamily=Times New Roman;" parent="1" vertex="1">
          <mxGeometry x="1282.56" y="2780" width="181" height="100" as="geometry" />
        </mxCell>
        <mxCell id="CvnI1XxXwCHe2HnbIkli-24" value="True" style="text;strokeColor=none;align=center;fillColor=none;html=1;verticalAlign=middle;whiteSpace=wrap;rounded=0;fontFamily=Times New Roman;" parent="1" vertex="1">
          <mxGeometry x="1388.06" y="2721" width="60" height="30" as="geometry" />
        </mxCell>
        <mxCell id="CvnI1XxXwCHe2HnbIkli-25" value="" style="edgeStyle=orthogonalEdgeStyle;rounded=0;orthogonalLoop=1;jettySize=auto;html=1;fontFamily=Times New Roman;" parent="1" source="CvnI1XxXwCHe2HnbIkli-26" target="CvnI1XxXwCHe2HnbIkli-28" edge="1">
          <mxGeometry relative="1" as="geometry" />
        </mxCell>
        <mxCell id="CvnI1XxXwCHe2HnbIkli-26" value="" style="ellipse;whiteSpace=wrap;html=1;fontFamily=Times New Roman;" parent="1" vertex="1">
          <mxGeometry x="1478.94" y="2888" width="58.12" height="60" as="geometry" />
        </mxCell>
        <mxCell id="CvnI1XxXwCHe2HnbIkli-27" value="False" style="text;html=1;align=center;verticalAlign=middle;resizable=0;points=[];autosize=1;strokeColor=none;fillColor=none;fontFamily=Times New Roman;" parent="1" vertex="1">
          <mxGeometry x="1563.56" y="2716" width="50" height="30" as="geometry" />
        </mxCell>
        <mxCell id="CvnI1XxXwCHe2HnbIkli-28" value="sublist+=1" style="rounded=1;whiteSpace=wrap;html=1;absoluteArcSize=1;arcSize=14;strokeWidth=2;fontFamily=Times New Roman;" parent="1" vertex="1">
          <mxGeometry x="1456.56" y="2979" width="103.5" height="50" as="geometry" />
        </mxCell>
        <mxCell id="CvnI1XxXwCHe2HnbIkli-29" value="True" style="text;html=1;align=center;verticalAlign=middle;resizable=0;points=[];autosize=1;strokeColor=none;fillColor=none;fontFamily=Times New Roman;" parent="1" vertex="1">
          <mxGeometry x="1502.06" y="2659" width="50" height="30" as="geometry" />
        </mxCell>
        <mxCell id="CvnI1XxXwCHe2HnbIkli-30" value="False" style="text;html=1;align=center;verticalAlign=middle;resizable=0;points=[];autosize=1;strokeColor=none;fillColor=none;fontFamily=Times New Roman;" parent="1" vertex="1">
          <mxGeometry x="1437" y="2403" width="50" height="30" as="geometry" />
        </mxCell>
        <mxCell id="CvnI1XxXwCHe2HnbIkli-31" value="True" style="text;html=1;align=center;verticalAlign=middle;resizable=0;points=[];autosize=1;strokeColor=none;fillColor=none;fontFamily=Times New Roman;" parent="1" vertex="1">
          <mxGeometry x="998" y="2307" width="50" height="30" as="geometry" />
        </mxCell>
        <mxCell id="CvnI1XxXwCHe2HnbIkli-32" value="False" style="text;html=1;align=center;verticalAlign=middle;resizable=0;points=[];autosize=1;strokeColor=none;fillColor=none;fontFamily=Times New Roman;" parent="1" vertex="1">
          <mxGeometry x="1198" y="2307" width="50" height="30" as="geometry" />
        </mxCell>
        <mxCell id="CvnI1XxXwCHe2HnbIkli-33" value="True" style="text;html=1;align=center;verticalAlign=middle;resizable=0;points=[];autosize=1;strokeColor=none;fillColor=none;fontFamily=Times New Roman;" parent="1" vertex="1">
          <mxGeometry x="1168" y="2401" width="50" height="30" as="geometry" />
        </mxCell>
        <mxCell id="CvnI1XxXwCHe2HnbIkli-35" value="" style="ellipse;whiteSpace=wrap;html=1;fontFamily=Times New Roman;" parent="1" vertex="1">
          <mxGeometry x="1233" y="3066" width="47" height="44" as="geometry" />
        </mxCell>
        <mxCell id="L4VHXBQo-f608jmsTUt3-1" style="edgeStyle=orthogonalEdgeStyle;rounded=0;orthogonalLoop=1;jettySize=auto;html=1;exitX=0.5;exitY=1;exitDx=0;exitDy=0;entryX=1;entryY=0.5;entryDx=0;entryDy=0;fontFamily=Times New Roman;" parent="1" source="CvnI1XxXwCHe2HnbIkli-37" target="CvnI1XxXwCHe2HnbIkli-35" edge="1">
          <mxGeometry relative="1" as="geometry" />
        </mxCell>
        <mxCell id="CvnI1XxXwCHe2HnbIkli-37" value="break" style="rounded=1;whiteSpace=wrap;html=1;absoluteArcSize=1;arcSize=14;strokeWidth=2;fontFamily=Times New Roman;" parent="1" vertex="1">
          <mxGeometry x="1590" y="3016" width="100" height="50" as="geometry" />
        </mxCell>
        <mxCell id="CvnI1XxXwCHe2HnbIkli-38" value="" style="edgeStyle=orthogonalEdgeStyle;rounded=0;orthogonalLoop=1;jettySize=auto;html=1;fontFamily=Times New Roman;" parent="1" source="CvnI1XxXwCHe2HnbIkli-39" target="CvnI1XxXwCHe2HnbIkli-1" edge="1">
          <mxGeometry relative="1" as="geometry" />
        </mxCell>
        <mxCell id="CvnI1XxXwCHe2HnbIkli-39" value="" style="verticalLabelPosition=bottom;verticalAlign=top;html=1;shape=mxgraph.flowchart.on-page_reference;fontFamily=Times New Roman;" parent="1" vertex="1">
          <mxGeometry x="1033" y="3103" width="60" height="60" as="geometry" />
        </mxCell>
        <mxCell id="CvnI1XxXwCHe2HnbIkli-40" style="edgeStyle=orthogonalEdgeStyle;rounded=0;orthogonalLoop=1;jettySize=auto;html=1;exitX=0.5;exitY=1;exitDx=0;exitDy=0;entryX=0;entryY=0.5;entryDx=0;entryDy=0;entryPerimeter=0;fontFamily=Times New Roman;" parent="1" source="CvnI1XxXwCHe2HnbIkli-7" target="CvnI1XxXwCHe2HnbIkli-39" edge="1">
          <mxGeometry relative="1" as="geometry" />
        </mxCell>
        <mxCell id="CvnI1XxXwCHe2HnbIkli-41" style="edgeStyle=orthogonalEdgeStyle;rounded=0;orthogonalLoop=1;jettySize=auto;html=1;exitX=0.5;exitY=1;exitDx=0;exitDy=0;entryX=1;entryY=0.5;entryDx=0;entryDy=0;entryPerimeter=0;fontFamily=Times New Roman;" parent="1" source="CvnI1XxXwCHe2HnbIkli-35" target="CvnI1XxXwCHe2HnbIkli-39" edge="1">
          <mxGeometry relative="1" as="geometry" />
        </mxCell>
        <mxCell id="CvnI1XxXwCHe2HnbIkli-42" value="4" style="text;strokeColor=none;align=center;fillColor=none;html=1;verticalAlign=middle;whiteSpace=wrap;rounded=0;fontFamily=Times New Roman;" parent="1" vertex="1">
          <mxGeometry x="1033" y="3194" width="60" height="31" as="geometry" />
        </mxCell>
        <mxCell id="CvnI1XxXwCHe2HnbIkli-43" value="False" style="text;html=1;align=center;verticalAlign=middle;resizable=0;points=[];autosize=1;strokeColor=none;fillColor=none;fontFamily=Times New Roman;" parent="1" vertex="1">
          <mxGeometry x="1566.06" y="2583" width="50" height="30" as="geometry" />
        </mxCell>
        <mxCell id="EnpWEPmTZlhx_5COm1D5-4" style="edgeStyle=orthogonalEdgeStyle;rounded=0;orthogonalLoop=1;jettySize=auto;html=1;exitX=0.5;exitY=1;exitDx=0;exitDy=0;fontFamily=Times New Roman;" parent="1" source="CvnI1XxXwCHe2HnbIkli-23" target="CvnI1XxXwCHe2HnbIkli-23" edge="1">
          <mxGeometry relative="1" as="geometry" />
        </mxCell>
        <mxCell id="EnpWEPmTZlhx_5COm1D5-6" style="edgeStyle=orthogonalEdgeStyle;rounded=0;orthogonalLoop=1;jettySize=auto;html=1;exitX=0;exitY=0.5;exitDx=0;exitDy=0;entryX=0;entryY=0.5;entryDx=0;entryDy=0;entryPerimeter=0;fontFamily=Times New Roman;" parent="1" source="CvnI1XxXwCHe2HnbIkli-28" target="CvnI1XxXwCHe2HnbIkli-18" edge="1">
          <mxGeometry relative="1" as="geometry">
            <Array as="points">
              <mxPoint x="1260" y="3004" />
              <mxPoint x="1260" y="2614" />
            </Array>
          </mxGeometry>
        </mxCell>
        <mxCell id="IWuKuceD8QdcIaufLeBi-1" value="#ModifyStk() 3-4" style="text;html=1;align=center;verticalAlign=middle;resizable=0;points=[];autosize=1;strokeColor=none;fillColor=none;fontFamily=Times New Roman;" parent="1" vertex="1">
          <mxGeometry x="865" y="2224" width="110" height="30" as="geometry" />
        </mxCell>
      </root>
    </mxGraphModel>
  </diagram>
</mxfile>
